# Blender 4.0.2
# www.blender.org
mtllib kiosk low-poly.mtl
o kiosk
v 0.000000 2.282135 10.115410
v -0.000000 2.398348 10.116380
v 0.026529 2.282135 10.122519
v 0.026529 2.396995 10.123358
v 0.045949 2.282135 10.141938
v 0.045949 2.393299 10.142424
v 0.053058 2.282135 10.168468
v 0.053058 2.388251 10.168468
v 0.045949 2.282135 10.194997
v 0.045949 2.383202 10.194511
v 0.026529 2.282135 10.214417
v 0.026529 2.379506 10.213577
v 0.000000 2.282135 10.221525
v 0.000000 2.378153 10.220555
v -0.026529 2.282135 10.214417
v -0.026529 2.379506 10.213577
v -0.045949 2.282135 10.194997
v -0.045949 2.383202 10.194511
v -0.053058 2.282135 10.168468
v -0.053058 2.388251 10.168468
v -0.045949 2.282135 10.141938
v -0.045949 2.393299 10.142424
v -0.026529 2.282135 10.122519
v -0.026529 2.396995 10.123358
v -0.000000 2.453544 10.137870
v 0.026529 2.450227 10.144156
v 0.045949 2.441164 10.161333
v 0.053058 2.428785 10.184796
v 0.045949 2.416406 10.208260
v 0.026529 2.407344 10.225436
v -0.000000 2.404027 10.231723
v -0.026529 2.407344 10.225436
v -0.045949 2.416406 10.208260
v -0.053058 2.428785 10.184796
v -0.045949 2.441164 10.161333
v -0.026529 2.450227 10.144156
v -0.000000 2.518680 10.183695
v 0.026529 2.513192 10.188213
v 0.045949 2.498199 10.200557
v 0.053058 2.477718 10.217419
v 0.045949 2.457237 10.234280
v 0.026529 2.442244 10.246623
v -0.000000 2.436756 10.251142
v -0.026529 2.442244 10.246623
v -0.045949 2.457237 10.234280
v -0.053058 2.477718 10.217419
v -0.045949 2.498199 10.200557
v -0.026529 2.513192 10.188213
v -0.000000 2.534109 10.214806
v 0.026529 2.527547 10.217540
v 0.045949 2.509621 10.225009
v 0.053058 2.485132 10.235211
v 0.045949 2.460644 10.245415
v 0.026529 2.442717 10.252884
v -0.000000 2.436156 10.255618
v -0.026529 2.442717 10.252884
v -0.045949 2.460644 10.245415
v -0.053058 2.485132 10.235211
v -0.045949 2.509621 10.225009
v -0.026529 2.527547 10.217540
v -0.000000 2.226848 10.115410
v 0.026529 2.226848 10.122519
v 0.045949 2.226848 10.141938
v 0.053058 2.226848 10.168468
v 0.045949 2.226848 10.194997
v 0.026529 2.226848 10.214417
v -0.000000 2.226848 10.221525
v -0.026529 2.226848 10.214417
v -0.045949 2.226848 10.194997
v -0.053058 2.226848 10.168468
v -0.045949 2.226848 10.141938
v -0.026529 2.226848 10.122519
v 0.000000 2.086977 10.115410
v 0.026529 2.086977 10.122519
v 0.045949 2.086977 10.141938
v 0.053058 2.086977 10.168468
v 0.045949 2.086977 10.194997
v 0.026529 2.086977 10.214417
v 0.000000 2.086977 10.221525
v -0.026529 2.086977 10.214417
v -0.045949 2.086977 10.194997
v -0.053058 2.086977 10.168468
v -0.045949 2.086977 10.141938
v -0.026529 2.086977 10.122519
v -0.522193 2.270881 10.367481
v -0.522193 2.877373 10.089602
v -0.542306 2.243863 10.339358
v -0.542306 2.873716 10.050776
v 0.522193 2.270881 10.367481
v 0.522193 2.877373 10.089602
v 0.542306 2.243863 10.339358
v 0.542306 2.873716 10.050776
v -0.542306 2.259201 10.372833
v -0.542306 2.889053 10.084250
v 0.542306 2.889053 10.084250
v 0.542306 2.259201 10.372833
v -0.522193 2.265648 10.356060
v -0.522193 2.872140 10.078180
v 0.522193 2.872140 10.078180
v 0.522193 2.265648 10.356060
v -0.317150 2.094264 10.377127
v -0.317150 2.093776 9.971956
v -0.317150 2.040963 10.377191
v -0.317150 2.040475 9.972021
v 0.317150 2.094264 10.377127
v 0.317150 2.093776 9.971956
v 0.317150 2.040963 10.377191
v 0.317150 2.040475 9.972021
vn 0.2568 0.0076 -0.9664
vn 0.7040 0.0042 -0.7101
vn 0.9653 0.0006 -0.2610
vn 0.9653 0.0006 0.2611
vn 0.7036 0.0047 0.7106
vn 0.2564 0.0090 0.9665
vn -0.2564 0.0090 0.9665
vn -0.7036 0.0047 0.7106
vn -0.9653 0.0006 0.2611
vn -0.9653 0.0006 -0.2610
vn -0.7026 -0.2753 0.6561
vn -0.7040 0.0042 -0.7101
vn -0.2568 0.0076 -0.9664
vn 0.7071 -0.0000 0.7071
vn 0.6972 -0.3792 0.6083
vn -0.2557 -0.3809 0.8885
vn 0.2557 -0.3809 0.8885
vn 0.7026 -0.2753 0.6561
vn 0.9651 -0.0989 0.2424
vn -0.2561 0.3512 -0.9006
vn 0.2561 0.3512 -0.9006
vn 0.9652 0.0969 -0.2431
vn -0.7030 0.2600 -0.6619
vn 0.7030 0.2600 -0.6619
vn -0.9652 0.0969 -0.2431
vn -0.9651 -0.0989 0.2424
vn 0.6842 -0.7118 0.1587
vn -0.2535 0.5556 -0.7919
vn 0.6990 0.4077 -0.5875
vn -0.9643 -0.1449 0.2218
vn 0.2516 -0.4982 0.8297
vn 0.9644 0.1485 -0.2190
vn -0.9644 0.1485 -0.2190
vn -0.2516 -0.4982 0.8297
vn 0.9642 -0.1449 0.2218
vn -0.6990 0.4077 -0.5875
vn 0.2535 0.5556 -0.7919
vn -0.6972 -0.3792 0.6083
vn -0.0000 0.3846 0.9231
vn -0.2554 0.8673 -0.4274
vn 0.7017 0.6425 -0.3080
vn -0.9641 -0.2488 0.0931
vn 0.2199 -0.9754 -0.0116
vn 0.9647 0.2405 -0.1072
vn -0.9647 0.2405 -0.1072
vn -0.2199 -0.9754 -0.0116
vn 0.9641 -0.2488 0.0931
vn -0.7017 0.6425 -0.3080
vn 0.2554 0.8673 -0.4274
vn -0.6842 -0.7118 0.1587
vn 0.2588 -0.0000 -0.9659
vn 0.9659 -0.0000 0.2588
vn -0.2588 -0.0000 -0.9659
vn 0.9659 -0.0000 -0.2588
vn -0.7071 -0.0000 -0.7071
vn 0.7071 -0.0000 -0.7071
vn -0.9659 -0.0000 -0.2588
vn -0.9659 -0.0000 0.2588
vn -0.7071 -0.0000 0.7071
vn -0.2588 -0.0000 0.9659
vn 0.2588 -0.0000 0.9659
vn -0.0000 -1.0000 -0.0000
vn -1.0000 -0.0000 -0.0000
vn -0.0000 -0.4165 -0.9091
vn 1.0000 -0.0000 -0.0000
vn -0.0000 0.9091 -0.4165
vn -0.0000 -0.9091 0.4165
vn -0.0000 0.4165 0.9091
vn -0.0000 -1.0000 0.0012
vn -0.0000 1.0000 -0.0012
vn -0.0000 0.0012 1.0000
vn -0.0000 -0.0012 -1.0000
vt 1.000000 0.500000
vt 1.000000 1.000000
vt 0.916667 1.000000
vt 0.916667 0.500000
vt 0.833333 1.000000
vt 0.833333 0.500000
vt 0.750000 1.000000
vt 0.750000 0.500000
vt 0.666667 1.000000
vt 0.666667 0.500000
vt 0.583333 1.000000
vt 0.583333 0.500000
vt 0.500000 1.000000
vt 0.500000 0.500000
vt 0.416667 1.000000
vt 0.416667 0.500000
vt 0.333333 1.000000
vt 0.333333 0.500000
vt 0.250000 1.000000
vt 0.250000 0.500000
vt 0.166667 1.000000
vt 0.166667 0.500000
vt 0.083333 1.000000
vt 0.083333 0.500000
vt 0.000000 1.000000
vt 0.000000 0.500000
vt 0.370000 0.457846
vt 0.250000 0.490000
vt 0.130000 0.457846
vt 0.042154 0.370000
vt 0.010000 0.250000
vt 0.042154 0.130000
vt 0.130000 0.042154
vt 0.250000 0.010000
vt 0.370000 0.042154
vt 0.457846 0.130000
vt 0.490000 0.250000
vt 0.457846 0.370000
vt 0.750000 0.490000
vt 0.870000 0.457846
vt 0.957846 0.370000
vt 0.990000 0.250000
vt 0.957846 0.130000
vt 0.870000 0.042154
vt 0.750000 0.010000
vt 0.630000 0.042154
vt 0.542154 0.130000
vt 0.510000 0.250000
vt 0.542154 0.370000
vt 0.630000 0.457846
vt 0.375000 0.000000
vt 0.625000 0.000000
vt 0.625000 0.250000
vt 0.375000 0.250000
vt 0.625000 0.500000
vt 0.375000 0.500000
vt 0.625000 0.750000
vt 0.375000 0.750000
vt 0.379636 0.995364
vt 0.379636 0.754636
vt 0.125000 0.500000
vt 0.125000 0.750000
vt 0.875000 0.500000
vt 0.875000 0.750000
vt 0.620364 0.995364
vt 0.625000 1.000000
vt 0.375000 1.000000
vt 0.620364 0.754636
s 0
usemtl lens1
f 1/1/1 2/2/1 4/3/1 3/4/1
f 3/4/2 4/3/2 6/5/2 5/6/2
f 5/6/3 6/5/3 8/7/3 7/8/3
f 7/8/4 8/7/4 10/9/4 9/10/4
f 9/10/5 10/9/5 12/11/5 11/12/5
f 11/12/6 12/11/6 14/13/6 13/14/6
f 13/14/7 14/13/7 16/15/7 15/16/7
f 15/16/8 16/15/8 18/17/8 17/18/8
f 17/18/9 18/17/9 20/19/9 19/20/9
f 19/20/10 20/19/10 22/21/10 21/22/10
f 18/17/11 16/15/11 32/15/11 33/17/11
f 21/22/12 22/21/12 24/23/12 23/24/12
f 23/24/13 24/23/13 2/25/13 1/26/13
f 9/10/14 11/12/14 66/12/14 65/10/14
f 30/11/15 29/9/15 41/9/15 42/11/15
f 16/15/16 14/13/16 31/13/16 32/15/16
f 14/13/17 12/11/17 30/11/17 31/13/17
f 12/11/18 10/9/18 29/9/18 30/11/18
f 10/9/19 8/7/19 28/7/19 29/9/19
f 2/25/20 24/23/20 36/23/20 25/25/20
f 4/3/21 2/2/21 25/2/21 26/3/21
f 8/7/22 6/5/22 27/5/22 28/7/22
f 24/23/23 22/21/23 35/21/23 36/23/23
f 6/5/24 4/3/24 26/3/24 27/5/24
f 22/21/25 20/19/25 34/19/25 35/21/25
f 20/19/26 18/17/26 33/17/26 34/19/26
f 42/11/27 41/9/27 53/9/27 54/11/27
f 25/25/28 36/23/28 48/23/28 37/25/28
f 27/5/29 26/3/29 38/3/29 39/5/29
f 34/19/30 33/17/30 45/17/30 46/19/30
f 31/13/31 30/11/31 42/11/31 43/13/31
f 28/7/32 27/5/32 39/5/32 40/7/32
f 35/21/33 34/19/33 46/19/33 47/21/33
f 32/15/34 31/13/34 43/13/34 44/15/34
f 29/9/35 28/7/35 40/7/35 41/9/35
f 36/23/36 35/21/36 47/21/36 48/23/36
f 26/3/37 25/2/37 37/2/37 38/3/37
f 33/17/38 32/15/38 44/15/38 45/17/38
f 50/27/39 49/28/39 60/29/39 59/30/39 58/31/39 57/32/39 56/33/39 55/34/39 54/35/39 53/36/39 52/37/39 51/38/39
f 37/25/40 48/23/40 60/23/40 49/25/40
f 39/5/41 38/3/41 50/3/41 51/5/41
f 46/19/42 45/17/42 57/17/42 58/19/42
f 43/13/43 42/11/43 54/11/43 55/13/43
f 40/7/44 39/5/44 51/5/44 52/7/44
f 47/21/45 46/19/45 58/19/45 59/21/45
f 44/15/46 43/13/46 55/13/46 56/15/46
f 41/9/47 40/7/47 52/7/47 53/9/47
f 48/23/48 47/21/48 59/21/48 60/23/48
f 38/3/49 37/2/49 49/2/49 50/3/49
f 45/17/50 44/15/50 56/15/50 57/17/50
f 61/1/51 62/4/51 74/4/51 73/1/51
f 7/8/52 9/10/52 65/10/52 64/8/52
f 23/24/53 1/26/53 61/26/53 72/24/53
f 1/1/51 3/4/51 62/4/51 61/1/51
f 5/6/54 7/8/54 64/8/54 63/6/54
f 21/22/55 23/24/55 72/24/55 71/22/55
f 3/4/56 5/6/56 63/6/56 62/4/56
f 19/20/57 21/22/57 71/22/57 70/20/57
f 17/18/58 19/20/58 70/20/58 69/18/58
f 15/16/59 17/18/59 69/18/59 68/16/59
f 13/14/60 15/16/60 68/16/60 67/14/60
f 11/12/61 13/14/61 67/14/61 66/12/61
f 73/39/62 74/40/62 75/41/62 76/42/62 77/43/62 78/44/62 79/45/62 80/46/62 81/47/62 82/48/62 83/49/62 84/50/62
f 68/16/59 69/18/59 81/18/59 80/16/59
f 65/10/14 66/12/14 78/12/14 77/10/14
f 72/24/53 61/26/53 73/26/53 84/24/53
f 62/4/56 63/6/56 75/6/56 74/4/56
f 69/18/58 70/20/58 82/20/58 81/18/58
f 66/12/61 67/14/61 79/14/61 78/12/61
f 63/6/54 64/8/54 76/8/54 75/6/54
f 70/20/57 71/22/57 83/22/57 82/20/57
f 67/14/60 68/16/60 80/16/60 79/14/60
f 64/8/52 65/10/52 77/10/52 76/8/52
f 71/22/55 72/24/55 84/24/55 83/22/55
usemtl kiosk
f 93/51/63 94/52/63 88/53/63 87/54/63
f 87/54/64 88/53/64 92/55/64 91/56/64
f 91/56/65 92/55/65 95/57/65 96/58/65
f 85/59/66 89/60/66 100/60/66 97/59/66
f 87/61/67 91/56/67 96/58/67 93/62/67
f 92/55/66 88/63/66 94/64/66 95/57/66
f 85/59/68 86/65/68 94/66/68 93/67/68
f 90/68/68 89/60/68 96/58/68 95/57/68
f 89/60/68 85/59/68 93/67/68 96/58/68
f 86/65/68 90/68/68 95/57/68 94/66/68
f 86/65/65 85/59/65 97/59/65 98/65/65
f 90/68/67 86/65/67 98/65/67 99/68/67
f 89/60/63 90/68/63 99/68/63 100/60/63
f 101/51/63 102/52/63 104/53/63 103/54/63
f 103/54/69 104/53/69 108/55/69 107/56/69
f 107/56/65 108/55/65 106/57/65 105/58/65
f 105/58/70 106/57/70 102/66/70 101/67/70
f 103/61/71 107/56/71 105/58/71 101/62/71
f 108/55/72 104/63/72 102/64/72 106/57/72
usemtl kios_led
f 100/60/68 99/68/68 98/65/68 97/59/68
