# Blender 4.2.0
# www.blender.org
mtllib kitchencountertop.mtl
o Cube
v 0.434796 0.964106 0.910103
v -0.441395 0.963255 0.910103
v -0.441395 0.963255 1.002846
v 0.434796 0.964106 1.002846
v 0.511797 1.054837 1.002846
v -0.511798 1.054837 1.002846
v -0.511797 1.054837 0.910103
v 0.511798 1.054837 0.910103
v -0.511797 1.054837 -0.244967
v 0.511798 1.054837 -0.244967
v 0.511797 1.003461 -0.244967
v -0.511798 1.003461 -0.244967
v 0.511797 0.023231 0.910103
v -0.511798 0.023231 0.910103
v -0.511797 0.023231 1.002846
v 0.511798 0.023231 1.002846
v -0.441395 0.142263 0.910103
v 0.434796 0.141412 0.910103
v 0.434796 0.141412 1.002846
v -0.441395 0.142263 1.002846
v -0.070402 0.963255 0.910103
v -0.070402 0.963255 1.002846
v -0.000000 1.054837 1.002846
v -0.544699 1.089662 1.031572
v 0.544699 1.089662 1.031572
v -0.000000 1.003461 -0.244967
v -0.000000 0.023231 0.910103
v 0.000000 0.023231 1.002846
v -0.070402 0.142263 1.002846
v -0.070402 0.142263 0.910103
v 0.077001 0.964106 0.910103
v -0.511798 1.003461 0.910103
v -0.511798 0.102058 0.910103
v -0.511797 1.003461 1.002846
v -0.511797 0.102058 1.002846
v 0.077001 0.141412 0.910103
v 0.077001 0.964106 1.002846
v 0.077001 0.141412 1.002846
v 0.000000 1.003461 1.002846
v 0.511798 1.003461 1.002846
v 0.511797 1.003461 0.910103
v 0.511797 0.102058 0.910103
v 0.511798 0.102058 1.002846
v 0.000000 0.102058 1.002846
v -0.000000 1.003461 0.910103
v -0.000000 0.102058 0.910103
v 0.434796 0.964106 0.910103
v -0.441395 0.963255 0.910103
v -0.441395 0.963255 1.002846
v 0.434796 0.964106 1.002846
v -0.441395 0.142263 0.910103
v 0.434796 0.141412 0.910103
v 0.434796 0.141412 1.002846
v -0.441395 0.142263 1.002846
v -0.070402 0.963255 0.910103
v -0.070402 0.963255 1.002846
v -0.070402 0.142263 1.002846
v -0.070402 0.142263 0.910103
v 0.077001 0.964106 0.910103
v 0.077001 0.141412 0.910103
v 0.077001 0.964106 1.002846
v 0.077001 0.141412 1.002846
v 0.434796 0.964106 0.910103
v -0.441395 0.963255 0.910103
v -0.441395 0.963255 1.002846
v 0.434796 0.964106 1.002846
v -0.441395 0.142263 0.910103
v 0.434796 0.141412 0.910103
v 0.434796 0.141412 1.002846
v -0.441395 0.142263 1.002846
v -0.070402 0.963255 0.910103
v -0.070402 0.963255 1.002846
v -0.070402 0.142263 1.002846
v -0.070402 0.142263 0.910103
v 0.077001 0.964106 0.910103
v 0.077001 0.141412 0.910103
v 0.077001 0.964106 1.002846
v 0.077001 0.141412 1.002846
v 0.434796 0.964106 0.910103
v -0.441395 0.963255 0.910103
v -0.441395 0.963255 1.002846
v 0.434796 0.964106 1.002846
v -0.441395 0.142263 0.910103
v 0.434796 0.141412 0.910103
v 0.434796 0.141412 1.002846
v -0.441395 0.142263 1.002846
v -0.070402 0.963255 0.910103
v -0.070402 0.963255 1.002846
v -0.070402 0.142263 1.002846
v -0.070402 0.142263 0.910103
v 0.077001 0.964106 0.910103
v 0.077001 0.141412 0.910103
v 0.077001 0.964106 1.002846
v 0.077001 0.141412 1.002846
v 0.434796 0.964106 0.910103
v -0.441395 0.963255 0.910103
v -0.441395 0.963255 1.002846
v 0.434796 0.964106 1.002846
v -0.441395 0.142263 0.910103
v 0.434796 0.141412 0.910103
v 0.434796 0.141412 1.002846
v -0.441395 0.142263 1.002846
v -0.070402 0.963255 0.910103
v -0.070402 0.963255 1.002846
v -0.070402 0.142263 1.002846
v -0.070402 0.142263 0.910103
v 0.077001 0.964106 0.910103
v 0.077001 0.141412 0.910103
v 0.077001 0.964106 1.002846
v 0.077001 0.141412 1.002846
v 0.434796 0.964106 0.934144
v -0.441395 0.963255 0.934144
v -0.441395 0.963255 0.978805
v 0.434796 0.964106 0.978805
v -0.441395 0.142263 0.934144
v 0.434796 0.141412 0.934144
v 0.434796 0.141412 0.978805
v -0.441395 0.142263 0.978805
v -0.070402 0.963255 0.934144
v -0.070402 0.963255 0.978805
v -0.070402 0.142263 0.978805
v -0.070402 0.142263 0.934144
v 0.077001 0.964106 0.934144
v 0.077001 0.141412 0.934144
v 0.077001 0.964106 0.978805
v 0.077001 0.141412 0.978805
v 0.544699 1.054837 1.031572
v -0.544699 1.054837 1.031572
v -0.544699 1.054837 0.932867
v 0.544699 1.054837 0.932867
v -0.544699 1.054837 -0.244967
v 0.544699 1.054837 -0.244967
v -0.000000 1.054837 1.031572
v -0.544699 1.089662 0.932867
v 0.544699 1.089662 0.932867
v -0.544699 1.089662 -0.244967
v 0.544699 1.089662 -0.244967
v -0.000000 1.089662 1.031572
v 0.000000 1.089662 0.932867
v 0.000000 1.089662 -0.244967
v 0.434796 0.964106 -1.400038
v -0.441395 0.963255 -1.400038
v -0.441395 0.963255 -1.492781
v 0.434796 0.964106 -1.492781
v 0.511797 1.054837 -1.492781
v -0.511798 1.054837 -1.492781
v -0.511797 1.054837 -1.400038
v 0.511798 1.054837 -1.400038
v 0.511797 0.023231 -1.400038
v -0.511798 0.023231 -1.400038
v -0.511797 0.023231 -1.492781
v 0.511798 0.023231 -1.492781
v -0.441395 0.142263 -1.400038
v 0.434796 0.141412 -1.400038
v 0.434796 0.141412 -1.492781
v -0.441395 0.142263 -1.492781
v -0.070402 0.963255 -1.400038
v -0.070402 0.963255 -1.492781
v -0.000000 1.054837 -1.492781
v -0.544699 1.089662 -1.521507
v 0.544699 1.089662 -1.521507
v -0.000000 0.023231 -1.400038
v 0.000000 0.023231 -1.492781
v -0.070402 0.142263 -1.492781
v -0.070402 0.142263 -1.400038
v 0.077001 0.964106 -1.400038
v -0.511798 1.003461 -1.400038
v -0.511798 0.102058 -1.400038
v -0.511797 1.003461 -1.492781
v -0.511797 0.102058 -1.492781
v 0.077001 0.141412 -1.400038
v 0.077001 0.964106 -1.492781
v 0.077001 0.141412 -1.492781
v 0.000000 1.003461 -1.492781
v 0.511798 1.003461 -1.492781
v 0.511797 1.003461 -1.400038
v 0.511797 0.102058 -1.400038
v 0.511798 0.102058 -1.492781
v 0.000000 0.102058 -1.492781
v -0.000000 1.003461 -1.400038
v -0.000000 0.102058 -1.400038
v 0.434796 0.964106 -1.400038
v -0.441395 0.963255 -1.400038
v -0.441395 0.963255 -1.492781
v 0.434796 0.964106 -1.492781
v -0.441395 0.142263 -1.400038
v 0.434796 0.141412 -1.400038
v 0.434796 0.141412 -1.492781
v -0.441395 0.142263 -1.492781
v -0.070402 0.963255 -1.400038
v -0.070402 0.963255 -1.492781
v -0.070402 0.142263 -1.492781
v -0.070402 0.142263 -1.400038
v 0.077001 0.964106 -1.400038
v 0.077001 0.141412 -1.400038
v 0.077001 0.964106 -1.492781
v 0.077001 0.141412 -1.492781
v 0.434796 0.964106 -1.400038
v -0.441395 0.963255 -1.400038
v -0.441395 0.963255 -1.492781
v 0.434796 0.964106 -1.492781
v -0.441395 0.142263 -1.400038
v 0.434796 0.141412 -1.400038
v 0.434796 0.141412 -1.492781
v -0.441395 0.142263 -1.492781
v -0.070402 0.963255 -1.400038
v -0.070402 0.963255 -1.492781
v -0.070402 0.142263 -1.492781
v -0.070402 0.142263 -1.400038
v 0.077001 0.964106 -1.400038
v 0.077001 0.141412 -1.400038
v 0.077001 0.964106 -1.492781
v 0.077001 0.141412 -1.492781
v 0.434796 0.964106 -1.400038
v -0.441395 0.963255 -1.400038
v -0.441395 0.963255 -1.492781
v 0.434796 0.964106 -1.492781
v -0.441395 0.142263 -1.400038
v 0.434796 0.141412 -1.400038
v 0.434796 0.141412 -1.492781
v -0.441395 0.142263 -1.492781
v -0.070402 0.963255 -1.400038
v -0.070402 0.963255 -1.492781
v -0.070402 0.142263 -1.492781
v -0.070402 0.142263 -1.400038
v 0.077001 0.964106 -1.400038
v 0.077001 0.141412 -1.400038
v 0.077001 0.964106 -1.492781
v 0.077001 0.141412 -1.492781
v 0.434796 0.964106 -1.400038
v -0.441395 0.963255 -1.400038
v -0.441395 0.963255 -1.492781
v 0.434796 0.964106 -1.492781
v -0.441395 0.142263 -1.400038
v 0.434796 0.141412 -1.400038
v 0.434796 0.141412 -1.492781
v -0.441395 0.142263 -1.492781
v -0.070402 0.963255 -1.400038
v -0.070402 0.963255 -1.492781
v -0.070402 0.142263 -1.492781
v -0.070402 0.142263 -1.400038
v 0.077001 0.964106 -1.400038
v 0.077001 0.141412 -1.400038
v 0.077001 0.964106 -1.492781
v 0.077001 0.141412 -1.492781
v 0.434796 0.964106 -1.424079
v -0.441395 0.963255 -1.424079
v -0.441395 0.963255 -1.468740
v 0.434796 0.964106 -1.468740
v -0.441395 0.142263 -1.424079
v 0.434796 0.141412 -1.424079
v 0.434796 0.141412 -1.468740
v -0.441395 0.142263 -1.468740
v -0.070402 0.963255 -1.424079
v -0.070402 0.963255 -1.468740
v -0.070402 0.142263 -1.468740
v -0.070402 0.142263 -1.424079
v 0.077001 0.964106 -1.424079
v 0.077001 0.141412 -1.424079
v 0.077001 0.964106 -1.468740
v 0.077001 0.141412 -1.468740
v 0.544699 1.054837 -1.521507
v -0.544699 1.054837 -1.521507
v -0.544699 1.054837 -1.422802
v 0.544699 1.054837 -1.422802
v -0.000000 1.054837 -1.521507
v -0.544699 1.089662 -1.422802
v 0.544699 1.089662 -1.422802
v -0.000000 1.089662 -1.521507
v 0.000000 1.089662 -1.422802
vn 1.0000 -0.0000 -0.0000
vn -0.0000 -0.0000 -1.0000
vn -0.0000 -0.0000 1.0000
vn -0.0000 -1.0000 -0.0000
vn -0.0000 1.0000 -0.0000
vn -1.0000 -0.0000 -0.0000
vt 0.352925 0.740710
vt 0.352925 0.625000
vt 0.647075 0.625000
vt 0.647075 0.740710
vt 0.625000 0.772075
vt 0.375000 0.772075
vt 0.352925 0.740710
vt 0.375000 0.772075
vt 0.352925 0.750000
vt 0.250000 0.740709
vt 0.250000 0.740710
vt 0.375000 0.875000
vt 0.375000 0.977925
vt 0.375000 0.977925
vt 0.250000 0.625000
vt 0.852925 0.625000
vt 0.852925 0.740710
vt 0.625000 0.977925
vt 0.375000 0.875000
vt 0.625000 0.875000
vt 0.250000 0.750000
vt 0.375000 0.859515
vt 0.375000 0.787561
vt 0.375000 0.889158
vt 0.375000 0.963766
vt 0.375000 0.787561
vt 0.235842 0.740710
vt 0.161233 0.740709
vt 0.147075 0.740709
vt 0.147075 0.750000
vt 0.147075 0.625000
vt 0.147075 0.740709
vt 0.235842 0.740710
vt 0.161233 0.740710
vt 0.375000 0.889158
vt 0.375000 0.859515
vt 0.337439 0.740710
vt 0.337439 0.740710
vt 0.265485 0.740710
vt 0.265485 0.740709
vt 0.750000 0.625000
vt 0.750000 0.740710
vt 0.852925 0.750000
vt 0.750000 0.750000
vt 0.647075 0.750000
s 0
f 41/1/1 11/2/1 10/3/1 8/4/1
f 5/5/1 40/6/1 41/1/1 8/4/1
f 13/7/1 42/7/1 43/8/1 16/9/1
f 46/10/2 42/7/2 13/7/2 27/11/2
f 42/7/1 41/1/1 40/6/1 43/8/1
f 44/12/3 35/13/3 15/14/3 28/12/3
f 26/15/4 11/2/4 41/1/4 45/11/4
f 9/16/4 7/17/4 129/17/4 131/16/4
f 7/17/4 6/18/4 128/18/4 129/17/4
f 39/19/3 23/20/3 6/18/3 34/13/3
f 27/11/4 13/7/4 16/9/4 28/21/4
f 38/22/5 19/23/5 53/23/5 62/22/5
f 22/24/5 3/25/5 49/25/5 56/24/5
f 19/23/5 4/26/5 50/26/5 53/23/5
f 30/27/5 17/28/5 51/28/5 58/27/5
f 14/29/4 27/11/4 28/21/4 15/30/4
f 40/6/3 5/5/3 23/20/3 39/19/3
f 23/20/4 5/5/4 127/5/4 133/20/4
f 8/4/4 10/3/4 132/3/4 130/4/4
f 12/31/4 26/15/4 45/11/4 32/32/4
f 43/8/3 44/12/3 28/12/3 16/8/3
f 33/29/2 46/10/2 27/11/2 14/29/2
f 21/33/2 2/34/2 32/32/2 45/11/2
f 2/34/2 17/28/2 33/29/2 32/32/2
f 20/25/3 3/25/3 34/13/3 35/13/3
f 17/28/2 30/27/2 46/10/2 33/29/2
f 3/25/3 22/24/3 39/19/3 34/13/3
f 29/35/3 20/25/3 35/13/3 44/12/3
f 30/27/2 21/33/2 45/11/2 46/10/2
f 22/24/3 29/35/3 44/12/3 39/19/3
f 37/36/3 4/26/3 40/6/3 39/19/3
f 18/37/2 1/38/2 41/1/2 42/7/2
f 4/26/3 19/23/3 43/8/3 40/6/3
f 19/23/3 38/22/3 44/12/3 43/8/3
f 1/38/2 31/39/2 45/11/2 41/1/2
f 36/40/2 18/37/2 42/7/2 46/10/2
f 31/39/2 36/40/2 46/10/2 45/11/2
f 38/22/3 37/36/3 39/19/3 44/12/3
f 52/37/5 60/40/5 76/40/5 68/37/5
f 54/25/5 57/35/5 73/35/5 70/25/5
f 59/39/5 47/38/5 63/38/5 75/39/5
f 56/24/5 49/25/5 65/25/5 72/24/5
f 20/25/5 29/35/5 57/35/5 54/25/5
f 31/39/5 1/38/5 47/38/5 59/39/5
f 21/33/5 30/27/5 58/27/5 55/33/5
f 18/37/5 36/40/5 60/40/5 52/37/5
f 29/35/5 22/24/5 56/24/5 57/35/5
f 36/40/5 31/39/5 59/39/5 60/40/5
f 2/34/5 21/33/5 55/33/5 48/34/5
f 37/36/5 38/22/5 62/22/5 61/36/5
f 17/28/5 2/34/5 48/34/5 51/28/5
f 4/26/5 37/36/5 61/36/5 50/26/5
f 3/25/5 20/25/5 54/25/5 49/25/5
f 1/38/5 18/37/5 52/37/5 47/38/5
f 77/36/5 78/22/5 94/22/5 93/36/5
f 64/34/5 71/33/5 87/33/5 80/34/5
f 73/35/5 72/24/5 88/24/5 89/35/5
f 76/40/5 75/39/5 91/39/5 92/40/5
f 55/33/5 58/27/5 74/27/5 71/33/5
f 60/40/5 59/39/5 75/39/5 76/40/5
f 57/35/5 56/24/5 72/24/5 73/35/5
f 48/34/5 55/33/5 71/33/5 64/34/5
f 61/36/5 62/22/5 78/22/5 77/36/5
f 50/26/5 61/36/5 77/36/5 66/26/5
f 51/28/5 48/34/5 64/34/5 67/28/5
f 47/38/5 52/37/5 68/37/5 63/38/5
f 49/25/5 54/25/5 70/25/5 65/25/5
f 53/23/5 50/26/5 66/26/5 69/23/5
f 58/27/5 51/28/5 67/28/5 74/27/5
f 62/22/5 53/23/5 69/23/5 78/22/5
f 84/37/5 92/40/5 108/40/5 100/37/5
f 86/25/5 89/35/5 105/35/5 102/25/5
f 91/39/5 79/38/5 95/38/5 107/39/5
f 88/24/5 81/25/5 97/25/5 104/24/5
f 66/26/5 77/36/5 93/36/5 82/26/5
f 67/28/5 64/34/5 80/34/5 83/28/5
f 63/38/5 68/37/5 84/37/5 79/38/5
f 65/25/5 70/25/5 86/25/5 81/25/5
f 69/23/5 66/26/5 82/26/5 85/23/5
f 74/27/5 67/28/5 83/28/5 90/27/5
f 78/22/5 69/23/5 85/23/5 94/22/5
f 72/24/5 65/25/5 81/25/5 88/24/5
f 75/39/5 63/38/5 79/38/5 91/39/5
f 70/25/5 73/35/5 89/35/5 86/25/5
f 68/37/5 76/40/5 92/40/5 84/37/5
f 71/33/5 74/27/5 90/27/5 87/33/5
f 106/27/5 99/28/5 115/28/5 122/27/5
f 101/23/6 98/26/6 114/26/6 117/23/6
f 97/25/1 102/25/1 118/25/1 113/25/1
f 95/38/6 100/37/6 116/37/6 111/38/6
f 87/33/5 90/27/5 106/27/5 103/33/5
f 92/40/5 91/39/5 107/39/5 108/40/5
f 89/35/5 88/24/5 104/24/5 105/35/5
f 80/34/5 87/33/5 103/33/5 96/34/5
f 93/36/5 94/22/5 110/22/5 109/36/5
f 82/26/5 93/36/5 109/36/5 98/26/5
f 83/28/5 80/34/5 96/34/5 99/28/5
f 79/38/5 84/37/5 100/37/5 95/38/5
f 81/25/5 86/25/5 102/25/5 97/25/5
f 85/23/5 82/26/5 98/26/5 101/23/5
f 90/27/5 83/28/5 99/28/5 106/27/5
f 94/22/5 85/23/5 101/23/5 110/22/5
f 120/24/3 113/25/3 118/25/3 121/35/3
f 123/39/2 111/38/2 116/37/2 124/40/2
f 112/34/2 119/33/2 122/27/2 115/28/2
f 114/26/3 125/36/3 126/22/3 117/23/3
f 110/22/5 101/23/5 117/23/5 126/22/5
f 104/24/4 97/25/4 113/25/4 120/24/4
f 107/39/4 95/38/4 111/38/4 123/39/4
f 102/25/5 105/35/5 121/35/5 118/25/5
f 100/37/5 108/40/5 124/40/5 116/37/5
f 103/33/6 106/27/6 122/27/6 119/33/6
f 108/40/1 107/39/1 123/39/1 124/40/1
f 105/35/6 104/24/6 120/24/6 121/35/6
f 96/34/4 103/33/4 119/33/4 112/34/4
f 109/36/1 110/22/1 126/22/1 125/36/1
f 98/26/4 109/36/4 125/36/4 114/26/4
f 99/28/1 96/34/1 112/34/1 115/28/1
f 14/29/6 15/30/6 35/13/6 33/29/6
f 33/29/6 35/13/6 34/13/6 32/32/6
f 6/18/6 7/17/6 32/32/6 34/13/6
f 32/32/6 7/17/6 9/16/6 12/31/6
f 129/17/6 128/18/6 24/18/6 134/17/6
f 130/4/1 132/3/1 137/3/1 135/4/1
f 127/5/1 130/4/1 135/4/1 25/5/1
f 133/20/3 127/5/3 25/5/3 138/20/3
f 6/18/4 23/20/4 133/20/4 128/18/4
f 5/5/4 8/4/4 130/4/4 127/5/4
f 140/41/5 136/16/5 134/17/5 139/42/5
f 139/42/5 134/17/5 24/43/5 138/44/5
f 135/4/5 139/42/5 138/44/5 25/45/5
f 137/3/5 140/41/5 139/42/5 135/4/5
f 131/16/6 129/17/6 134/17/6 136/16/6
f 128/18/3 133/20/3 138/20/3 24/18/3
f 176/1/1 148/4/1 10/3/1 11/2/1
f 145/5/1 148/4/1 176/1/1 175/6/1
f 149/7/1 152/9/1 178/8/1 177/7/1
f 181/10/3 162/11/3 149/7/3 177/7/3
f 177/7/1 178/8/1 175/6/1 176/1/1
f 179/12/2 163/12/2 151/14/2 170/13/2
f 26/15/4 180/11/4 176/1/4 11/2/4
f 9/16/4 131/16/4 264/17/4 147/17/4
f 147/17/4 264/17/4 263/18/4 146/18/4
f 174/19/2 169/13/2 146/18/2 159/20/2
f 162/11/4 163/21/4 152/9/4 149/7/4
f 173/22/5 197/22/5 188/23/5 155/23/5
f 158/24/5 191/24/5 184/25/5 143/25/5
f 155/23/5 188/23/5 185/26/5 144/26/5
f 165/27/5 193/27/5 186/28/5 153/28/5
f 150/29/4 151/30/4 163/21/4 162/11/4
f 175/6/2 174/19/2 159/20/2 145/5/2
f 159/20/4 266/20/4 262/5/4 145/5/4
f 148/4/4 265/4/4 132/3/4 10/3/4
f 12/31/4 167/32/4 180/11/4 26/15/4
f 178/8/2 152/8/2 163/12/2 179/12/2
f 168/29/3 150/29/3 162/11/3 181/10/3
f 157/33/3 180/11/3 167/32/3 142/34/3
f 142/34/3 167/32/3 168/29/3 153/28/3
f 156/25/2 170/13/2 169/13/2 143/25/2
f 153/28/3 168/29/3 181/10/3 165/27/3
f 143/25/2 169/13/2 174/19/2 158/24/2
f 164/35/2 179/12/2 170/13/2 156/25/2
f 165/27/3 181/10/3 180/11/3 157/33/3
f 158/24/2 174/19/2 179/12/2 164/35/2
f 172/36/2 174/19/2 175/6/2 144/26/2
f 154/37/3 177/7/3 176/1/3 141/38/3
f 144/26/2 175/6/2 178/8/2 155/23/2
f 155/23/2 178/8/2 179/12/2 173/22/2
f 141/38/3 176/1/3 180/11/3 166/39/3
f 171/40/3 181/10/3 177/7/3 154/37/3
f 166/39/3 180/11/3 181/10/3 171/40/3
f 173/22/2 179/12/2 174/19/2 172/36/2
f 187/37/5 203/37/5 211/40/5 195/40/5
f 189/25/5 205/25/5 208/35/5 192/35/5
f 194/39/5 210/39/5 198/38/5 182/38/5
f 191/24/5 207/24/5 200/25/5 184/25/5
f 156/25/5 189/25/5 192/35/5 164/35/5
f 166/39/5 194/39/5 182/38/5 141/38/5
f 157/33/5 190/33/5 193/27/5 165/27/5
f 154/37/5 187/37/5 195/40/5 171/40/5
f 164/35/5 192/35/5 191/24/5 158/24/5
f 171/40/5 195/40/5 194/39/5 166/39/5
f 142/34/5 183/34/5 190/33/5 157/33/5
f 172/36/5 196/36/5 197/22/5 173/22/5
f 153/28/5 186/28/5 183/34/5 142/34/5
f 144/26/5 185/26/5 196/36/5 172/36/5
f 143/25/5 184/25/5 189/25/5 156/25/5
f 141/38/5 182/38/5 187/37/5 154/37/5
f 212/36/5 228/36/5 229/22/5 213/22/5
f 199/34/5 215/34/5 222/33/5 206/33/5
f 208/35/5 224/35/5 223/24/5 207/24/5
f 211/40/5 227/40/5 226/39/5 210/39/5
f 190/33/5 206/33/5 209/27/5 193/27/5
f 195/40/5 211/40/5 210/39/5 194/39/5
f 192/35/5 208/35/5 207/24/5 191/24/5
f 183/34/5 199/34/5 206/33/5 190/33/5
f 196/36/5 212/36/5 213/22/5 197/22/5
f 185/26/5 201/26/5 212/36/5 196/36/5
f 186/28/5 202/28/5 199/34/5 183/34/5
f 182/38/5 198/38/5 203/37/5 187/37/5
f 184/25/5 200/25/5 205/25/5 189/25/5
f 188/23/5 204/23/5 201/26/5 185/26/5
f 193/27/5 209/27/5 202/28/5 186/28/5
f 197/22/5 213/22/5 204/23/5 188/23/5
f 219/37/5 235/37/5 243/40/5 227/40/5
f 221/25/5 237/25/5 240/35/5 224/35/5
f 226/39/5 242/39/5 230/38/5 214/38/5
f 223/24/5 239/24/5 232/25/5 216/25/5
f 201/26/5 217/26/5 228/36/5 212/36/5
f 202/28/5 218/28/5 215/34/5 199/34/5
f 198/38/5 214/38/5 219/37/5 203/37/5
f 200/25/5 216/25/5 221/25/5 205/25/5
f 204/23/5 220/23/5 217/26/5 201/26/5
f 209/27/5 225/27/5 218/28/5 202/28/5
f 213/22/5 229/22/5 220/23/5 204/23/5
f 207/24/5 223/24/5 216/25/5 200/25/5
f 210/39/5 226/39/5 214/38/5 198/38/5
f 205/25/5 221/25/5 224/35/5 208/35/5
f 203/37/5 219/37/5 227/40/5 211/40/5
f 206/33/5 222/33/5 225/27/5 209/27/5
f 241/27/5 257/27/5 250/28/5 234/28/5
f 236/23/6 252/23/6 249/26/6 233/26/6
f 232/25/1 248/25/1 253/25/1 237/25/1
f 230/38/6 246/38/6 251/37/6 235/37/6
f 222/33/5 238/33/5 241/27/5 225/27/5
f 227/40/5 243/40/5 242/39/5 226/39/5
f 224/35/5 240/35/5 239/24/5 223/24/5
f 215/34/5 231/34/5 238/33/5 222/33/5
f 228/36/5 244/36/5 245/22/5 229/22/5
f 217/26/5 233/26/5 244/36/5 228/36/5
f 218/28/5 234/28/5 231/34/5 215/34/5
f 214/38/5 230/38/5 235/37/5 219/37/5
f 216/25/5 232/25/5 237/25/5 221/25/5
f 220/23/5 236/23/5 233/26/5 217/26/5
f 225/27/5 241/27/5 234/28/5 218/28/5
f 229/22/5 245/22/5 236/23/5 220/23/5
f 255/24/2 256/35/2 253/25/2 248/25/2
f 258/39/3 259/40/3 251/37/3 246/38/3
f 247/34/3 250/28/3 257/27/3 254/33/3
f 249/26/2 252/23/2 261/22/2 260/36/2
f 245/22/5 261/22/5 252/23/5 236/23/5
f 239/24/4 255/24/4 248/25/4 232/25/4
f 242/39/4 258/39/4 246/38/4 230/38/4
f 237/25/5 253/25/5 256/35/5 240/35/5
f 235/37/5 251/37/5 259/40/5 243/40/5
f 238/33/6 254/33/6 257/27/6 241/27/6
f 243/40/1 259/40/1 258/39/1 242/39/1
f 240/35/6 256/35/6 255/24/6 239/24/6
f 231/34/4 247/34/4 254/33/4 238/33/4
f 244/36/1 260/36/1 261/22/1 245/22/1
f 233/26/4 249/26/4 260/36/4 244/36/4
f 234/28/1 250/28/1 247/34/1 231/34/1
f 150/29/6 168/29/6 170/13/6 151/30/6
f 168/29/6 167/32/6 169/13/6 170/13/6
f 146/18/6 169/13/6 167/32/6 147/17/6
f 167/32/6 12/31/6 9/16/6 147/17/6
f 264/17/6 267/17/6 160/18/6 263/18/6
f 265/4/1 268/4/1 137/3/1 132/3/1
f 262/5/1 161/5/1 268/4/1 265/4/1
f 266/20/2 269/20/2 161/5/2 262/5/2
f 146/18/4 263/18/4 266/20/4 159/20/4
f 145/5/4 262/5/4 265/4/4 148/4/4
f 140/41/5 270/42/5 267/17/5 136/16/5
f 270/42/5 269/44/5 160/43/5 267/17/5
f 268/4/5 161/45/5 269/44/5 270/42/5
f 137/3/5 268/4/5 270/42/5 140/41/5
f 131/16/6 136/16/6 267/17/6 264/17/6
f 263/18/2 160/18/2 269/20/2 266/20/2
