# Blender 4.2.0
# www.blender.org
mtllib lunchtable6seater.mtl
o lunchtable6seater
v 14.300911 0.109026 -53.865906
v 14.300911 0.434929 -53.865906
v 14.343880 0.109026 -53.866955
v 14.343880 0.434929 -53.866955
v 14.301958 0.109026 -53.822937
v 14.301958 0.434929 -53.822937
v 14.344928 0.109026 -53.823982
v 14.344928 0.434929 -53.823982
v 14.300911 0.163073 -53.865906
v 14.343880 0.163073 -53.866955
v 14.344928 0.163073 -53.823982
v 14.301958 0.163073 -53.822937
v 14.534248 0.128202 -53.851757
v 14.534552 0.128202 -53.839279
v 14.534248 0.143897 -53.851757
v 14.534552 0.143897 -53.839279
v 14.534624 0.013673 -53.839077
v 14.534624 0.262796 -53.839077
v 14.534279 0.013673 -53.851917
v 14.534279 0.262796 -53.851917
v 14.541547 0.013673 -53.862511
v 14.541547 0.262796 -53.862511
v 14.553653 0.013673 -53.866806
v 14.553653 0.262796 -53.866806
v 14.565972 0.013673 -53.863163
v 14.565972 0.262796 -53.863163
v 14.573798 0.013673 -53.852978
v 14.573798 0.262796 -53.852978
v 14.574143 0.013673 -53.840137
v 14.574143 0.262796 -53.840137
v 14.566875 0.013673 -53.829548
v 14.566875 0.262796 -53.829548
v 14.554770 0.013673 -53.825253
v 14.554770 0.262796 -53.825253
v 14.542450 0.013673 -53.828892
v 14.542450 0.262796 -53.828892
v 14.448739 0.262955 -53.808598
v 14.446882 0.262955 -53.877743
v 14.486021 0.262955 -53.934772
v 14.551207 0.262955 -53.957905
v 14.617539 0.262955 -53.938305
v 14.659683 0.262955 -53.883457
v 14.661540 0.262955 -53.814316
v 14.622401 0.262955 -53.757286
v 14.557216 0.262955 -53.734150
v 14.490883 0.262955 -53.753754
v 14.448739 0.251420 -53.808598
v 14.446882 0.251420 -53.877743
v 14.486021 0.251420 -53.934772
v 14.551207 0.251420 -53.957905
v 14.617539 0.251420 -53.938305
v 14.659683 0.251420 -53.883457
v 14.661540 0.251420 -53.814316
v 14.622401 0.251420 -53.757286
v 14.557216 0.251420 -53.734150
v 14.490883 0.251420 -53.753754
v 13.955554 0.424266 -53.015240
v 13.955554 0.453246 -53.015240
v 13.955554 0.424266 -54.027035
v 13.955554 0.453246 -54.027035
v 14.446184 0.424266 -53.015240
v 14.446184 0.453246 -53.015240
v 14.446184 0.424266 -54.027035
v 14.446184 0.453246 -54.027035
v 14.300910 0.109026 -53.192486
v 14.300910 0.434929 -53.192486
v 14.343879 0.109026 -53.193535
v 14.343879 0.434929 -53.193535
v 14.301957 0.109026 -53.149517
v 14.301957 0.434929 -53.149517
v 14.344927 0.109026 -53.150562
v 14.344927 0.434929 -53.150562
v 14.300910 0.163073 -53.192486
v 14.343879 0.163073 -53.193535
v 14.344927 0.163073 -53.150562
v 14.301957 0.163073 -53.149517
v 14.534246 0.128202 -53.178337
v 14.534551 0.128202 -53.165859
v 14.534246 0.143897 -53.178337
v 14.534551 0.143897 -53.165859
v 14.534623 0.013673 -53.165657
v 14.534623 0.262796 -53.165657
v 14.534278 0.013673 -53.178497
v 14.534278 0.262796 -53.178497
v 14.541546 0.013673 -53.189087
v 14.541546 0.262796 -53.189087
v 14.553652 0.013673 -53.193386
v 14.553652 0.262796 -53.193386
v 14.565971 0.013673 -53.189743
v 14.565971 0.262796 -53.189743
v 14.573797 0.013673 -53.179558
v 14.573797 0.262796 -53.179558
v 14.574142 0.013673 -53.166718
v 14.574142 0.262796 -53.166718
v 14.566874 0.013673 -53.156128
v 14.566874 0.262796 -53.156128
v 14.554768 0.013673 -53.151833
v 14.554768 0.262796 -53.151833
v 14.542449 0.013673 -53.155472
v 14.542449 0.262796 -53.155472
v 14.448738 0.262955 -53.135178
v 14.446881 0.262955 -53.204323
v 14.486020 0.262955 -53.261353
v 14.551206 0.262955 -53.284485
v 14.617538 0.262955 -53.264885
v 14.659682 0.262955 -53.210037
v 14.661539 0.262955 -53.140892
v 14.622400 0.262955 -53.083862
v 14.557215 0.262955 -53.060730
v 14.490882 0.262955 -53.080330
v 14.448738 0.251420 -53.135178
v 14.446881 0.251420 -53.204323
v 14.486020 0.251420 -53.261353
v 14.551206 0.251420 -53.284485
v 14.617538 0.251420 -53.264885
v 14.659682 0.251420 -53.210037
v 14.661539 0.251420 -53.140892
v 14.622400 0.251420 -53.083862
v 14.557215 0.251420 -53.060730
v 14.490882 0.251420 -53.080330
v 14.300910 0.109026 -53.542664
v 14.300910 0.434929 -53.542664
v 14.343880 0.109026 -53.543709
v 14.343880 0.434929 -53.543709
v 14.301957 0.109026 -53.499691
v 14.301957 0.434929 -53.499691
v 14.344928 0.109026 -53.500740
v 14.344928 0.434929 -53.500740
v 14.300910 0.163073 -53.542664
v 14.343880 0.163073 -53.543709
v 14.344928 0.163073 -53.500740
v 14.301957 0.163073 -53.499691
v 14.534247 0.128202 -53.528511
v 14.534551 0.128202 -53.516033
v 14.534247 0.143897 -53.528511
v 14.534551 0.143897 -53.516033
v 14.534623 0.013673 -53.515835
v 14.534623 0.262796 -53.515835
v 14.534278 0.013673 -53.528675
v 14.534278 0.262796 -53.528675
v 14.541547 0.013673 -53.539265
v 14.541547 0.262796 -53.539265
v 14.553653 0.013673 -53.543560
v 14.553653 0.262796 -53.543560
v 14.565971 0.013673 -53.539921
v 14.565971 0.262796 -53.539921
v 14.573797 0.013673 -53.529736
v 14.573797 0.262796 -53.529736
v 14.574142 0.013673 -53.516895
v 14.574142 0.262796 -53.516895
v 14.566874 0.013673 -53.506302
v 14.566874 0.262796 -53.506302
v 14.554769 0.013673 -53.502007
v 14.554769 0.262796 -53.502007
v 14.542450 0.013673 -53.505646
v 14.542450 0.262796 -53.505646
v 14.448738 0.262955 -53.485355
v 14.446881 0.262955 -53.554497
v 14.486020 0.262955 -53.611526
v 14.551206 0.262955 -53.634659
v 14.617538 0.262955 -53.615059
v 14.659682 0.262955 -53.560215
v 14.661539 0.262955 -53.491070
v 14.622400 0.262955 -53.434040
v 14.557215 0.262955 -53.410908
v 14.490882 0.262955 -53.430508
v 14.448738 0.251420 -53.485355
v 14.446881 0.251420 -53.554497
v 14.486020 0.251420 -53.611526
v 14.551206 0.251420 -53.634659
v 14.617538 0.251420 -53.615059
v 14.659682 0.251420 -53.560215
v 14.661539 0.251420 -53.491070
v 14.622400 0.251420 -53.434040
v 14.557215 0.251420 -53.410908
v 14.490882 0.251420 -53.430508
v 14.097155 0.109026 -53.834129
v 14.097155 0.434929 -53.834129
v 14.054186 0.109026 -53.833080
v 14.054186 0.434929 -53.833080
v 14.096107 0.109026 -53.877098
v 14.096107 0.434929 -53.877098
v 14.053138 0.109026 -53.876049
v 14.053138 0.434929 -53.876049
v 14.097155 0.163073 -53.834129
v 14.054186 0.163073 -53.833080
v 14.053138 0.163073 -53.876049
v 14.096107 0.163073 -53.877098
v 13.863817 0.128202 -53.848278
v 13.863514 0.128202 -53.860756
v 13.863817 0.143897 -53.848278
v 13.863514 0.143897 -53.860756
v 13.863441 0.013673 -53.860958
v 13.863441 0.262796 -53.860958
v 13.863787 0.013673 -53.848118
v 13.863787 0.262796 -53.848118
v 13.856519 0.013673 -53.837524
v 13.856519 0.262796 -53.837524
v 13.844413 0.013673 -53.833229
v 13.844413 0.262796 -53.833229
v 13.832093 0.013673 -53.836868
v 13.832093 0.262796 -53.836868
v 13.824267 0.013673 -53.847054
v 13.824267 0.262796 -53.847054
v 13.823922 0.013673 -53.859894
v 13.823922 0.262796 -53.859894
v 13.831191 0.013673 -53.870487
v 13.831191 0.262796 -53.870487
v 13.843296 0.013673 -53.874783
v 13.843296 0.262796 -53.874783
v 13.855616 0.013673 -53.871143
v 13.855616 0.262796 -53.871143
v 13.949327 0.262955 -53.891434
v 13.951183 0.262955 -53.822292
v 13.912045 0.262955 -53.765263
v 13.846859 0.262955 -53.742130
v 13.780526 0.262955 -53.761730
v 13.738382 0.262955 -53.816578
v 13.736526 0.262955 -53.885719
v 13.775664 0.262955 -53.942749
v 13.840850 0.262955 -53.965881
v 13.907183 0.262955 -53.946281
v 13.949327 0.251420 -53.891434
v 13.951183 0.251420 -53.822292
v 13.912045 0.251420 -53.765263
v 13.846859 0.251420 -53.742130
v 13.780526 0.251420 -53.761730
v 13.738382 0.251420 -53.816578
v 13.736526 0.251420 -53.885719
v 13.775664 0.251420 -53.942749
v 13.840850 0.251420 -53.965881
v 13.907183 0.251420 -53.946281
v 14.097155 0.109026 -53.483952
v 14.097155 0.434929 -53.483952
v 14.054185 0.109026 -53.482903
v 14.054185 0.434929 -53.482903
v 14.096107 0.109026 -53.526920
v 14.096107 0.434929 -53.526920
v 14.053137 0.109026 -53.525871
v 14.053137 0.434929 -53.525871
v 14.097155 0.163073 -53.483952
v 14.054185 0.163073 -53.482903
v 14.053137 0.163073 -53.525871
v 14.096107 0.163073 -53.526920
v 13.863817 0.128202 -53.498100
v 13.863514 0.128202 -53.510578
v 13.863817 0.143897 -53.498100
v 13.863514 0.143897 -53.510578
v 13.863441 0.013673 -53.510780
v 13.863441 0.262796 -53.510780
v 13.863787 0.013673 -53.497940
v 13.863787 0.262796 -53.497940
v 13.856518 0.013673 -53.487347
v 13.856518 0.262796 -53.487347
v 13.844412 0.013673 -53.483051
v 13.844412 0.262796 -53.483051
v 13.832093 0.013673 -53.486691
v 13.832093 0.262796 -53.486691
v 13.824267 0.013673 -53.496880
v 13.824267 0.262796 -53.496880
v 13.823922 0.013673 -53.509720
v 13.823922 0.262796 -53.509720
v 13.831191 0.013673 -53.520309
v 13.831191 0.262796 -53.520309
v 13.843296 0.013673 -53.524605
v 13.843296 0.262796 -53.524605
v 13.855615 0.013673 -53.520966
v 13.855615 0.262796 -53.520966
v 13.949327 0.262955 -53.541260
v 13.951183 0.262955 -53.472115
v 13.912045 0.262955 -53.415085
v 13.846859 0.262955 -53.391953
v 13.780526 0.262955 -53.411552
v 13.738381 0.262955 -53.466400
v 13.736526 0.262955 -53.535542
v 13.775664 0.262955 -53.592571
v 13.840850 0.262955 -53.615704
v 13.907183 0.262955 -53.596104
v 13.949327 0.251420 -53.541260
v 13.951183 0.251420 -53.472115
v 13.912045 0.251420 -53.415085
v 13.846859 0.251420 -53.391953
v 13.780526 0.251420 -53.411552
v 13.738381 0.251420 -53.466400
v 13.736526 0.251420 -53.535542
v 13.775664 0.251420 -53.592571
v 13.840850 0.251420 -53.615704
v 13.907183 0.251420 -53.596104
v 14.097156 0.109026 -53.160717
v 14.097156 0.434929 -53.160717
v 14.054186 0.109026 -53.159668
v 14.054186 0.434929 -53.159668
v 14.096107 0.109026 -53.203686
v 14.096107 0.434929 -53.203686
v 14.053138 0.109026 -53.202637
v 14.053138 0.434929 -53.202637
v 14.097156 0.163073 -53.160717
v 14.054186 0.163073 -53.159668
v 14.053138 0.163073 -53.202637
v 14.096107 0.163073 -53.203686
v 13.863818 0.128202 -53.174866
v 13.863514 0.128202 -53.187344
v 13.863818 0.143897 -53.174866
v 13.863514 0.143897 -53.187344
v 13.863442 0.013673 -53.187546
v 13.863442 0.262796 -53.187546
v 13.863788 0.013673 -53.174706
v 13.863788 0.262796 -53.174706
v 13.856519 0.013673 -53.164112
v 13.856519 0.262796 -53.164112
v 13.844413 0.013673 -53.159817
v 13.844413 0.262796 -53.159817
v 13.832094 0.013673 -53.163456
v 13.832094 0.262796 -53.163456
v 13.824268 0.013673 -53.173641
v 13.824268 0.262796 -53.173641
v 13.823923 0.013673 -53.186485
v 13.823923 0.262796 -53.186485
v 13.831192 0.013673 -53.197075
v 13.831192 0.262796 -53.197075
v 13.843297 0.013673 -53.201370
v 13.843297 0.262796 -53.201370
v 13.855616 0.013673 -53.197731
v 13.855616 0.262796 -53.197731
v 13.949327 0.262955 -53.218025
v 13.951184 0.262955 -53.148880
v 13.912045 0.262955 -53.091850
v 13.846860 0.262955 -53.068718
v 13.780527 0.262955 -53.088318
v 13.738382 0.262955 -53.143166
v 13.736526 0.262955 -53.212307
v 13.775665 0.262955 -53.269337
v 13.840851 0.262955 -53.292469
v 13.907183 0.262955 -53.272869
v 13.949327 0.251420 -53.218025
v 13.951184 0.251420 -53.148880
v 13.912045 0.251420 -53.091850
v 13.846860 0.251420 -53.068718
v 13.780527 0.251420 -53.088318
v 13.738382 0.251420 -53.143166
v 13.736526 0.251420 -53.212307
v 13.775665 0.251420 -53.269337
v 13.840851 0.251420 -53.292469
v 13.907183 0.251420 -53.272869
vn -0.0244 -0.0000 -0.9997
vn 0.9997 -0.0000 -0.0244
vn 0.0244 -0.0000 0.9997
vn -0.9997 -0.0000 0.0244
vn -0.0000 -1.0000 -0.0000
vn -0.0000 1.0000 -0.0000
vn 0.1004 -0.9949 -0.0024
vn 0.9997 -0.0000 -0.0243
vn 0.1004 0.9949 -0.0024
vn 0.0796 -0.0000 -0.9968
vn 0.0804 -0.0000 0.9968
vn -0.9996 -0.0000 0.0269
vn -0.8245 -0.0000 -0.5658
vn -0.3344 -0.0000 -0.9424
vn 0.2834 -0.0000 -0.9590
vn 0.7930 -0.0000 -0.6093
vn 0.9996 -0.0000 -0.0269
vn 0.8245 -0.0000 0.5659
vn 0.3345 -0.0000 0.9424
vn -0.2834 -0.0000 0.9590
vn -0.7930 -0.0000 0.6093
vn -0.9996 -0.0000 0.0268
vn 0.3344 -0.0000 0.9424
vn 0.7929 -0.0000 -0.6093
vn -0.8245 -0.0000 -0.5659
vn 0.9996 -0.0000 -0.0268
vn -0.7929 -0.0000 0.6093
vn -1.0000 -0.0000 -0.0000
vn -0.0000 -0.0000 -1.0000
vn 1.0000 -0.0000 -0.0000
vn -0.0000 -0.0000 1.0000
vn -0.1004 -0.9949 0.0024
vn -0.9997 -0.0000 0.0243
vn -0.1004 0.9949 0.0024
vn -0.0796 -0.0000 0.9968
vn -0.0804 -0.0000 -0.9968
vn 0.8245 -0.0000 0.5658
vn -0.3345 -0.0000 -0.9424
vt 0.416459 0.000000
vt 0.625000 0.000000
vt 0.625000 0.250000
vt 0.416459 0.250000
vt 0.625000 0.500000
vt 0.416459 0.500000
vt 0.625000 0.750000
vt 0.416459 0.750000
vt 0.625000 1.000000
vt 0.416459 1.000000
vt 0.125000 0.500000
vt 0.375000 0.500000
vt 0.375000 0.750000
vt 0.125000 0.750000
vt 0.875000 0.500000
vt 0.875000 0.750000
vt 0.375000 1.000000
vt 0.375000 0.000000
vt 0.375000 0.250000
vt 1.000000 0.500000
vt 1.000000 1.000000
vt 0.900000 1.000000
vt 0.900000 0.500000
vt 0.800000 1.000000
vt 0.800000 0.500000
vt 0.700000 1.000000
vt 0.700000 0.500000
vt 0.600000 1.000000
vt 0.600000 0.500000
vt 0.500000 1.000000
vt 0.500000 0.500000
vt 0.400000 1.000000
vt 0.400000 0.500000
vt 0.300000 1.000000
vt 0.300000 0.500000
vt 0.200000 1.000000
vt 0.200000 0.500000
vt 0.391068 0.444164
vt 0.250000 0.490000
vt 0.108932 0.444164
vt 0.021746 0.324164
vt 0.021746 0.175836
vt 0.108932 0.055836
vt 0.250000 0.010000
vt 0.391068 0.055836
vt 0.478254 0.175836
vt 0.478254 0.324164
vt 0.100000 1.000000
vt 0.100000 0.500000
vt -0.000000 1.000000
vt -0.000000 0.500000
vt 0.750000 0.490000
vt 0.891068 0.444164
vt 0.978254 0.324164
vt 0.978254 0.175836
vt 0.891068 0.055836
vt 0.750000 0.010000
vt 0.608932 0.055836
vt 0.521746 0.175836
vt 0.521746 0.324164
vt 0.608932 0.444164
s 0
f 9/1/1 2/2/1 4/3/1 10/4/1
f 10/4/2 4/3/2 8/5/2 11/6/2
f 11/6/3 8/5/3 6/7/3 12/8/3
f 12/8/4 6/7/4 2/9/4 9/10/4
f 3/11/5 7/12/5 5/13/5 1/14/5
f 8/5/6 4/15/6 2/16/6 6/7/6
f 5/13/4 12/8/4 9/10/4 1/17/4
f 7/12/3 11/6/3 12/8/3 5/13/3
f 7/12/7 3/11/7 13/11/7 14/12/7
f 1/18/1 9/1/1 10/4/1 3/19/1
f 13/19/8 15/4/8 16/6/8 14/12/8
f 10/4/9 11/6/9 16/6/9 15/4/9
f 3/19/10 10/4/10 15/4/10 13/19/10
f 11/6/11 7/12/11 14/12/11 16/6/11
f 17/20/12 18/21/12 20/22/12 19/23/12
f 19/23/13 20/22/13 22/24/13 21/25/13
f 21/25/14 22/24/14 24/26/14 23/27/14
f 23/27/15 24/26/15 26/28/15 25/29/15
f 25/29/16 26/28/16 28/30/16 27/31/16
f 27/31/17 28/30/17 30/32/17 29/33/17
f 29/33/18 30/32/18 32/34/18 31/35/18
f 31/35/19 32/34/19 34/36/19 33/37/19
f 20/38/6 18/39/6 36/40/6 34/41/6 32/42/6 30/43/6 28/44/6 26/45/6 24/46/6 22/47/6
f 33/37/20 34/36/20 36/48/20 35/49/20
f 35/49/21 36/48/21 18/50/21 17/51/21
f 17/52/5 19/53/5 21/54/5 23/55/5 25/56/5 27/57/5 29/58/5 31/59/5 33/60/5 35/61/5
f 38/38/5 39/47/5 40/46/5 41/45/5 42/44/5 43/43/5 44/42/5 45/41/5 46/40/5 37/39/5
f 39/47/18 38/38/18 48/38/18 49/47/18
f 46/40/15 45/41/15 55/41/15 56/40/15
f 43/43/22 42/44/22 52/44/22 53/43/22
f 40/46/23 39/47/23 49/47/23 50/46/23
f 37/39/24 46/40/24 56/40/24 47/39/24
f 44/42/25 43/43/25 53/43/25 54/42/25
f 41/45/20 40/46/20 50/46/20 51/45/20
f 38/38/26 37/39/26 47/39/26 48/38/26
f 45/41/14 44/42/14 54/42/14 55/41/14
f 42/44/27 41/45/27 51/45/27 52/44/27
f 57/18/28 58/2/28 60/3/28 59/19/28
f 59/19/29 60/3/29 64/5/29 63/12/29
f 63/12/30 64/5/30 62/7/30 61/13/30
f 61/13/31 62/7/31 58/9/31 57/17/31
f 59/11/5 63/12/5 61/13/5 57/14/5
f 64/5/6 60/15/6 58/16/6 62/7/6
f 73/1/1 66/2/1 68/3/1 74/4/1
f 74/4/2 68/3/2 72/5/2 75/6/2
f 75/6/3 72/5/3 70/7/3 76/8/3
f 76/8/4 70/7/4 66/9/4 73/10/4
f 67/11/5 71/12/5 69/13/5 65/14/5
f 72/5/6 68/15/6 66/16/6 70/7/6
f 69/13/4 76/8/4 73/10/4 65/17/4
f 71/12/3 75/6/3 76/8/3 69/13/3
f 71/12/7 67/11/7 77/11/7 78/12/7
f 65/18/1 73/1/1 74/4/1 67/19/1
f 77/19/8 79/4/8 80/6/8 78/12/8
f 74/4/9 75/6/9 80/6/9 79/4/9
f 67/19/10 74/4/10 79/4/10 77/19/10
f 75/6/11 71/12/11 78/12/11 80/6/11
f 81/20/12 82/21/12 84/22/12 83/23/12
f 83/23/13 84/22/13 86/24/13 85/25/13
f 85/25/14 86/24/14 88/26/14 87/27/14
f 87/27/15 88/26/15 90/28/15 89/29/15
f 89/29/16 90/28/16 92/30/16 91/31/16
f 91/31/17 92/30/17 94/32/17 93/33/17
f 93/33/18 94/32/18 96/34/18 95/35/18
f 95/35/19 96/34/19 98/36/19 97/37/19
f 84/38/6 82/39/6 100/40/6 98/41/6 96/42/6 94/43/6 92/44/6 90/45/6 88/46/6 86/47/6
f 97/37/20 98/36/20 100/48/20 99/49/20
f 99/49/21 100/48/21 82/50/21 81/51/21
f 81/52/5 83/53/5 85/54/5 87/55/5 89/56/5 91/57/5 93/58/5 95/59/5 97/60/5 99/61/5
f 102/38/5 103/47/5 104/46/5 105/45/5 106/44/5 107/43/5 108/42/5 109/41/5 110/40/5 101/39/5
f 103/47/18 102/38/18 112/38/18 113/47/18
f 110/40/15 109/41/15 119/41/15 120/40/15
f 107/43/22 106/44/22 116/44/22 117/43/22
f 104/46/23 103/47/23 113/47/23 114/46/23
f 101/39/24 110/40/24 120/40/24 111/39/24
f 108/42/25 107/43/25 117/43/25 118/42/25
f 105/45/20 104/46/20 114/46/20 115/45/20
f 102/38/26 101/39/26 111/39/26 112/38/26
f 109/41/14 108/42/14 118/42/14 119/41/14
f 106/44/27 105/45/27 115/45/27 116/44/27
f 129/1/1 122/2/1 124/3/1 130/4/1
f 130/4/2 124/3/2 128/5/2 131/6/2
f 131/6/3 128/5/3 126/7/3 132/8/3
f 132/8/4 126/7/4 122/9/4 129/10/4
f 123/11/5 127/12/5 125/13/5 121/14/5
f 128/5/6 124/15/6 122/16/6 126/7/6
f 125/13/4 132/8/4 129/10/4 121/17/4
f 127/12/3 131/6/3 132/8/3 125/13/3
f 127/12/7 123/11/7 133/11/7 134/12/7
f 121/18/1 129/1/1 130/4/1 123/19/1
f 133/19/8 135/4/8 136/6/8 134/12/8
f 130/4/9 131/6/9 136/6/9 135/4/9
f 123/19/10 130/4/10 135/4/10 133/19/10
f 131/6/11 127/12/11 134/12/11 136/6/11
f 137/20/12 138/21/12 140/22/12 139/23/12
f 139/23/13 140/22/13 142/24/13 141/25/13
f 141/25/14 142/24/14 144/26/14 143/27/14
f 143/27/15 144/26/15 146/28/15 145/29/15
f 145/29/16 146/28/16 148/30/16 147/31/16
f 147/31/17 148/30/17 150/32/17 149/33/17
f 149/33/18 150/32/18 152/34/18 151/35/18
f 151/35/19 152/34/19 154/36/19 153/37/19
f 140/38/6 138/39/6 156/40/6 154/41/6 152/42/6 150/43/6 148/44/6 146/45/6 144/46/6 142/47/6
f 153/37/20 154/36/20 156/48/20 155/49/20
f 155/49/21 156/48/21 138/50/21 137/51/21
f 137/52/5 139/53/5 141/54/5 143/55/5 145/56/5 147/57/5 149/58/5 151/59/5 153/60/5 155/61/5
f 158/38/5 159/47/5 160/46/5 161/45/5 162/44/5 163/43/5 164/42/5 165/41/5 166/40/5 157/39/5
f 159/47/18 158/38/18 168/38/18 169/47/18
f 166/40/15 165/41/15 175/41/15 176/40/15
f 163/43/22 162/44/22 172/44/22 173/43/22
f 160/46/23 159/47/23 169/47/23 170/46/23
f 157/39/24 166/40/24 176/40/24 167/39/24
f 164/42/25 163/43/25 173/43/25 174/42/25
f 161/45/20 160/46/20 170/46/20 171/45/20
f 158/38/26 157/39/26 167/39/26 168/38/26
f 165/41/14 164/42/14 174/42/14 175/41/14
f 162/44/27 161/45/27 171/45/27 172/44/27
f 185/1/3 178/2/3 180/3/3 186/4/3
f 186/4/4 180/3/4 184/5/4 187/6/4
f 187/6/1 184/5/1 182/7/1 188/8/1
f 188/8/2 182/7/2 178/9/2 185/10/2
f 179/11/5 183/12/5 181/13/5 177/14/5
f 184/5/6 180/15/6 178/16/6 182/7/6
f 181/13/2 188/8/2 185/10/2 177/17/2
f 183/12/1 187/6/1 188/8/1 181/13/1
f 183/12/32 179/11/32 189/11/32 190/12/32
f 177/18/3 185/1/3 186/4/3 179/19/3
f 189/19/33 191/4/33 192/6/33 190/12/33
f 186/4/34 187/6/34 192/6/34 191/4/34
f 179/19/35 186/4/35 191/4/35 189/19/35
f 187/6/36 183/12/36 190/12/36 192/6/36
f 193/20/17 194/21/17 196/22/17 195/23/17
f 195/23/37 196/22/37 198/24/37 197/25/37
f 197/25/23 198/24/23 200/26/23 199/27/23
f 199/27/20 200/26/20 202/28/20 201/29/20
f 201/29/21 202/28/21 204/30/21 203/31/21
f 203/31/12 204/30/12 206/32/12 205/33/12
f 205/33/25 206/32/25 208/34/25 207/35/25
f 207/35/38 208/34/38 210/36/38 209/37/38
f 196/38/6 194/39/6 212/40/6 210/41/6 208/42/6 206/43/6 204/44/6 202/45/6 200/46/6 198/47/6
f 209/37/15 210/36/15 212/48/15 211/49/15
f 211/49/16 212/48/16 194/50/16 193/51/16
f 193/52/5 195/53/5 197/54/5 199/55/5 201/56/5 203/57/5 205/58/5 207/59/5 209/60/5 211/61/5
f 214/38/5 215/47/5 216/46/5 217/45/5 218/44/5 219/43/5 220/42/5 221/41/5 222/40/5 213/39/5
f 215/47/25 214/38/25 224/38/25 225/47/25
f 222/40/20 221/41/20 231/41/20 232/40/20
f 219/43/26 218/44/26 228/44/26 229/43/26
f 216/46/14 215/47/14 225/47/14 226/46/14
f 213/39/27 222/40/27 232/40/27 223/39/27
f 220/42/18 219/43/18 229/43/18 230/42/18
f 217/45/15 216/46/15 226/46/15 227/45/15
f 214/38/22 213/39/22 223/39/22 224/38/22
f 221/41/23 220/42/23 230/42/23 231/41/23
f 218/44/24 217/45/24 227/45/24 228/44/24
f 241/1/3 234/2/3 236/3/3 242/4/3
f 242/4/4 236/3/4 240/5/4 243/6/4
f 243/6/1 240/5/1 238/7/1 244/8/1
f 244/8/2 238/7/2 234/9/2 241/10/2
f 235/11/5 239/12/5 237/13/5 233/14/5
f 240/5/6 236/15/6 234/16/6 238/7/6
f 237/13/2 244/8/2 241/10/2 233/17/2
f 239/12/1 243/6/1 244/8/1 237/13/1
f 239/12/32 235/11/32 245/11/32 246/12/32
f 233/18/3 241/1/3 242/4/3 235/19/3
f 245/19/33 247/4/33 248/6/33 246/12/33
f 242/4/34 243/6/34 248/6/34 247/4/34
f 235/19/35 242/4/35 247/4/35 245/19/35
f 243/6/36 239/12/36 246/12/36 248/6/36
f 249/20/17 250/21/17 252/22/17 251/23/17
f 251/23/37 252/22/37 254/24/37 253/25/37
f 253/25/23 254/24/23 256/26/23 255/27/23
f 255/27/20 256/26/20 258/28/20 257/29/20
f 257/29/21 258/28/21 260/30/21 259/31/21
f 259/31/12 260/30/12 262/32/12 261/33/12
f 261/33/25 262/32/25 264/34/25 263/35/25
f 263/35/38 264/34/38 266/36/38 265/37/38
f 252/38/6 250/39/6 268/40/6 266/41/6 264/42/6 262/43/6 260/44/6 258/45/6 256/46/6 254/47/6
f 265/37/15 266/36/15 268/48/15 267/49/15
f 267/49/16 268/48/16 250/50/16 249/51/16
f 249/52/5 251/53/5 253/54/5 255/55/5 257/56/5 259/57/5 261/58/5 263/59/5 265/60/5 267/61/5
f 270/38/5 271/47/5 272/46/5 273/45/5 274/44/5 275/43/5 276/42/5 277/41/5 278/40/5 269/39/5
f 271/47/25 270/38/25 280/38/25 281/47/25
f 278/40/20 277/41/20 287/41/20 288/40/20
f 275/43/26 274/44/26 284/44/26 285/43/26
f 272/46/14 271/47/14 281/47/14 282/46/14
f 269/39/27 278/40/27 288/40/27 279/39/27
f 276/42/18 275/43/18 285/43/18 286/42/18
f 273/45/15 272/46/15 282/46/15 283/45/15
f 270/38/22 269/39/22 279/39/22 280/38/22
f 277/41/23 276/42/23 286/42/23 287/41/23
f 274/44/24 273/45/24 283/45/24 284/44/24
f 297/1/3 290/2/3 292/3/3 298/4/3
f 298/4/4 292/3/4 296/5/4 299/6/4
f 299/6/1 296/5/1 294/7/1 300/8/1
f 300/8/2 294/7/2 290/9/2 297/10/2
f 291/11/5 295/12/5 293/13/5 289/14/5
f 296/5/6 292/15/6 290/16/6 294/7/6
f 293/13/2 300/8/2 297/10/2 289/17/2
f 295/12/1 299/6/1 300/8/1 293/13/1
f 295/12/32 291/11/32 301/11/32 302/12/32
f 289/18/3 297/1/3 298/4/3 291/19/3
f 301/19/33 303/4/33 304/6/33 302/12/33
f 298/4/34 299/6/34 304/6/34 303/4/34
f 291/19/35 298/4/35 303/4/35 301/19/35
f 299/6/36 295/12/36 302/12/36 304/6/36
f 305/20/17 306/21/17 308/22/17 307/23/17
f 307/23/37 308/22/37 310/24/37 309/25/37
f 309/25/23 310/24/23 312/26/23 311/27/23
f 311/27/20 312/26/20 314/28/20 313/29/20
f 313/29/21 314/28/21 316/30/21 315/31/21
f 315/31/12 316/30/12 318/32/12 317/33/12
f 317/33/25 318/32/25 320/34/25 319/35/25
f 319/35/38 320/34/38 322/36/38 321/37/38
f 308/38/6 306/39/6 324/40/6 322/41/6 320/42/6 318/43/6 316/44/6 314/45/6 312/46/6 310/47/6
f 321/37/15 322/36/15 324/48/15 323/49/15
f 323/49/16 324/48/16 306/50/16 305/51/16
f 305/52/5 307/53/5 309/54/5 311/55/5 313/56/5 315/57/5 317/58/5 319/59/5 321/60/5 323/61/5
f 326/38/5 327/47/5 328/46/5 329/45/5 330/44/5 331/43/5 332/42/5 333/41/5 334/40/5 325/39/5
f 327/47/25 326/38/25 336/38/25 337/47/25
f 334/40/20 333/41/20 343/41/20 344/40/20
f 331/43/26 330/44/26 340/44/26 341/43/26
f 328/46/14 327/47/14 337/47/14 338/46/14
f 325/39/27 334/40/27 344/40/27 335/39/27
f 332/42/18 331/43/18 341/43/18 342/42/18
f 329/45/15 328/46/15 338/46/15 339/45/15
f 326/38/22 325/39/22 335/39/22 336/38/22
f 333/41/23 332/42/23 342/42/23 343/41/23
f 330/44/24 329/45/24 339/45/24 340/44/24
