# Blender 4.2.0
# www.blender.org
mtllib ovaltablev1.mtl
o Circle
v -1.549896 0.609600 2.506992
v -1.542422 0.609600 2.923613
v -1.496820 0.609600 3.325306
v -1.414845 0.609600 3.696636
v -1.299645 0.609600 4.023331
v -1.155648 0.609600 4.292838
v -0.988387 0.609600 4.494798
v -0.804291 0.609600 4.621451
v -0.610434 0.609600 4.667931
v -0.414265 0.609600 4.632450
v -0.223324 0.609600 4.516372
v -0.044949 0.609600 4.324158
v 0.114007 0.609600 4.063194
v 0.247434 0.609600 3.743509
v 0.350204 0.609600 3.377389
v 0.418369 0.609600 2.978904
v 0.449309 0.609600 2.563366
v 0.441835 0.609600 2.146745
v 0.396234 0.609600 1.745052
v 0.314258 0.609600 1.373722
v 0.199058 0.609600 1.047027
v 0.055061 0.609600 0.777520
v -0.112199 0.609600 0.575560
v -0.296296 0.609600 0.448906
v -0.490153 0.609600 0.402427
v -0.686321 0.609600 0.437908
v -0.877262 0.609600 0.553986
v -1.055638 0.609600 0.746200
v -1.214593 0.609600 1.007164
v -1.348020 0.609600 1.326848
v -1.450791 0.609600 1.692968
v -1.518956 0.609600 2.091454
v -1.549896 0.644934 2.506992
v -1.542422 0.644934 2.923613
v -1.496820 0.644934 3.325306
v -1.414845 0.644934 3.696636
v -1.299645 0.644934 4.023331
v -1.155648 0.644934 4.292838
v -0.988387 0.644934 4.494798
v -0.804291 0.644934 4.621451
v -0.610434 0.644934 4.667931
v -0.414265 0.644934 4.632450
v -0.223324 0.644934 4.516372
v -0.044949 0.644934 4.324158
v 0.114007 0.644934 4.063194
v 0.247434 0.644934 3.743509
v 0.350204 0.644934 3.377389
v 0.418369 0.644934 2.978904
v 0.449309 0.644934 2.563366
v 0.441835 0.644934 2.146745
v 0.396234 0.644934 1.745052
v 0.314258 0.644934 1.373722
v 0.199058 0.644934 1.047027
v 0.055061 0.644934 0.777520
v -0.112199 0.644934 0.575560
v -0.296296 0.644934 0.448906
v -0.490153 0.644934 0.402427
v -0.686321 0.644934 0.437908
v -0.877262 0.644934 0.553986
v -1.055638 0.644934 0.746200
v -1.214593 0.644934 1.007164
v -1.348020 0.644934 1.326848
v -1.450791 0.644934 1.692968
v -1.518956 0.644934 2.091454
vn 0.7276 0.6857 0.0205
vn 0.7212 0.6912 -0.0468
vn 0.6973 0.7075 -0.1151
vn 0.6534 0.7341 -0.1846
vn 0.5853 0.7699 -0.2544
vn 0.4878 0.8114 -0.3220
vn 0.3572 0.8524 -0.3819
vn 0.1951 0.8835 -0.4258
vn 0.0126 0.8953 -0.4453
vn -0.1707 0.8835 -0.4361
vn -0.3351 0.8524 -0.4014
vn -0.4689 0.8114 -0.3490
vn -0.5700 0.7699 -0.2870
vn -0.6420 0.7341 -0.2211
vn -0.6897 0.7075 -0.1542
vn -0.7174 0.6912 -0.0873
vn -0.7276 0.6857 -0.0205
vn -0.7212 0.6912 0.0468
vn -0.6973 0.7075 0.1151
vn -0.6534 0.7341 0.1846
vn -0.5853 0.7699 0.2544
vn -0.4878 0.8114 0.3220
vn -0.3572 0.8524 0.3819
vn -0.1951 0.8835 0.4258
vn -0.0126 0.8953 0.4453
vn 0.1707 0.8835 0.4361
vn 0.3351 0.8524 0.4014
vn 0.4689 0.8114 0.3490
vn 0.5700 0.7699 0.2870
vn 0.6420 0.7341 0.2211
vn 0.6897 0.7075 0.1542
vn 0.7174 0.6912 0.0873
vn 0.7276 -0.6857 0.0205
vn 0.7212 -0.6912 -0.0468
vn 0.6973 -0.7075 -0.1151
vn 0.6534 -0.7341 -0.1846
vn 0.5853 -0.7699 -0.2544
vn 0.4878 -0.8114 -0.3220
vn 0.3572 -0.8524 -0.3819
vn 0.1951 -0.8835 -0.4258
vn 0.0126 -0.8953 -0.4453
vn -0.1707 -0.8835 -0.4361
vn -0.3351 -0.8524 -0.4014
vn -0.4689 -0.8114 -0.3490
vn -0.5700 -0.7699 -0.2870
vn -0.6420 -0.7341 -0.2211
vn -0.6897 -0.7075 -0.1542
vn -0.7174 -0.6912 -0.0873
vn -0.7276 -0.6857 -0.0205
vn -0.7212 -0.6912 0.0468
vn -0.6973 -0.7075 0.1151
vn -0.6534 -0.7341 0.1846
vn -0.5853 -0.7699 0.2544
vn -0.4878 -0.8114 0.3220
vn -0.3572 -0.8524 0.3819
vn -0.1951 -0.8835 0.4258
vn -0.0126 -0.8953 0.4453
vn 0.1707 -0.8835 0.4361
vn 0.3351 -0.8524 0.4014
vn 0.4689 -0.8114 0.3490
vn 0.5700 -0.7699 0.2870
vn 0.6420 -0.7341 0.2211
vn 0.6897 -0.7075 0.1542
vn 0.7174 -0.6912 0.0873
vt 1.443920 0.521651
vt 1.443920 0.570896
vt 1.435044 0.570896
vt 1.435044 0.521651
vt 1.426167 0.576479
vt 1.426167 0.624778
vt 1.417291 0.624778
vt 1.417291 0.576479
vt 1.443920 0.473351
vt 1.435044 0.473351
vt 1.426167 0.530982
vt 1.417291 0.530982
vt 1.443920 0.427854
vt 1.435044 0.427854
vt 1.426167 0.490036
vt 1.417291 0.490036
vt 1.435044 0.705639
vt 1.435044 0.746586
vt 1.426167 0.746586
vt 1.426167 0.705639
vt 1.426167 0.455214
vt 1.417291 0.455214
vt 1.435044 0.660142
vt 1.426167 0.660142
vt 1.426167 0.427854
vt 1.417291 0.427854
vt 1.435044 0.611843
vt 1.426167 0.611843
vt 1.417291 0.781408
vt 1.417291 0.816230
vt 1.408415 0.816230
vt 1.408415 0.781408
vt 1.435044 0.562597
vt 1.426167 0.562597
vt 1.417291 0.740461
vt 1.408415 0.740461
vt 1.435044 0.514298
vt 1.426167 0.514298
vt 1.417291 0.694964
vt 1.408415 0.694964
vt 1.435044 0.468801
vt 1.426167 0.468801
vt 1.417291 0.427854
vt 1.417291 0.462676
vt 1.408415 0.462676
vt 1.408415 0.427854
vt 1.417291 0.646665
vt 1.408415 0.646665
vt 1.435044 0.427854
vt 1.426167 0.427854
vt 1.443920 0.705639
vt 1.443920 0.740461
vt 1.435044 0.740461
vt 1.435044 0.705639
vt 1.417291 0.597419
vt 1.408415 0.597419
vt 1.426167 0.767821
vt 1.426167 0.808767
vt 1.417291 0.808767
vt 1.417291 0.767821
vt 1.443920 0.664693
vt 1.435044 0.664693
vt 1.417291 0.549120
vt 1.408415 0.549120
vt 1.426167 0.722324
vt 1.417291 0.722324
vt 1.443920 0.619196
vt 1.435044 0.619196
vt 1.417291 0.503622
vt 1.408415 0.503622
vt 1.426167 0.674024
vt 1.417291 0.674024
vt 2.260191 0.418563
vt 2.295013 0.383741
vt 2.335959 0.356381
vt 2.381456 0.337536
vt 2.429756 0.327928
vt 2.479002 0.327928
vt 2.527301 0.337536
vt 2.572798 0.356381
vt 2.613744 0.383741
vt 2.648566 0.418563
vt 2.675926 0.459509
vt 2.694772 0.505006
vt 2.704379 0.553305
vt 2.704379 0.602551
vt 2.694772 0.650851
vt 2.675926 0.696348
vt 2.648566 0.737294
vt 2.613744 0.772116
vt 2.572798 0.799475
vt 2.527301 0.818321
vt 2.479002 0.827928
vt 2.429756 0.827928
vt 2.381457 0.818321
vt 2.335959 0.799475
vt 2.295013 0.772116
vt 2.260191 0.737294
vt 2.232832 0.696348
vt 2.213986 0.650851
vt 2.204379 0.602551
vt 2.204379 0.553305
vt 2.213986 0.505006
vt 2.232832 0.459509
s 1
f 7/1/7 6/2/6 38/3/38 39/4/39
f 21/5/21 20/6/20 52/7/52 53/8/53
f 8/9/8 7/1/7 39/4/39 40/10/40
f 22/11/22 21/5/21 53/8/53 54/12/54
f 9/13/9 8/9/8 40/10/40 41/14/41
f 23/15/23 22/11/22 54/12/54 55/16/55
f 10/17/10 9/18/9 41/19/41 42/20/42
f 24/21/24 23/15/23 55/16/55 56/22/56
f 11/23/11 10/17/10 42/20/42 43/24/43
f 25/25/25 24/21/24 56/22/56 57/26/57
f 12/27/12 11/23/11 43/24/43 44/28/44
f 26/29/26 25/30/25 57/31/57 58/32/58
f 13/33/13 12/27/12 44/28/44 45/34/45
f 27/35/27 26/29/26 58/32/58 59/36/59
f 14/37/14 13/33/13 45/34/45 46/38/46
f 28/39/28 27/35/27 59/36/59 60/40/60
f 15/41/15 14/37/14 46/38/46 47/42/47
f 2/43/2 1/44/1 33/45/33 34/46/34
f 29/47/29 28/39/28 60/40/60 61/48/61
f 16/49/16 15/41/15 47/42/47 48/50/48
f 3/51/3 2/52/2 34/53/34 35/54/35
f 30/55/30 29/47/29 61/48/61 62/56/62
f 17/57/17 16/58/16 48/59/48 49/60/49
f 4/61/4 3/51/3 35/54/35 36/62/36
f 31/63/31 30/55/30 62/56/62 63/64/63
f 18/65/18 17/57/17 49/60/49 50/66/50
f 5/67/5 4/61/4 36/62/36 37/68/37
f 32/69/32 31/63/31 63/64/63 64/70/64
f 19/71/19 18/65/18 50/66/50 51/72/51
f 6/2/6 5/67/5 37/68/37 38/3/38
f 1/44/1 32/69/32 64/70/64 33/45/33
f 20/6/20 19/71/19 51/72/51 52/7/52
f 2/73/2 3/74/3 4/75/4 5/76/5 6/77/6 7/78/7 8/79/8 9/80/9 10/81/10 11/82/11 12/83/12 13/84/13 14/85/14 15/86/15 16/87/16 17/88/17 18/89/18 19/90/19 20/91/20 21/92/21 22/93/22 23/94/23 24/95/24 25/96/25 26/97/26 27/98/27 28/99/28 29/100/29 30/101/30 31/102/31 32/103/32 1/104/1
f 34/46/34 33/45/33 64/70/64 63/64/63 62/56/62 61/48/61 60/40/60 59/36/59 58/32/58 57/31/57 56/22/56 55/16/55 54/12/54 53/8/53 52/7/52 51/72/51 50/66/50 49/60/49 48/59/48 47/42/47 46/38/46 45/34/45 44/28/44 43/24/43 42/20/42 41/19/41 40/10/40 39/4/39 38/3/38 37/68/37 36/62/36 35/54/35
o Cube.002
v 0.009612 0.004745 1.550570
v 0.009612 0.608174 1.550570
v -0.046762 0.004745 3.549775
v -0.046762 0.608174 3.549775
v -0.058015 0.004745 1.548663
v -0.058015 0.608174 1.548663
v -0.114390 0.004745 3.547868
v -0.114390 0.608174 3.547868
v 0.006833 0.004745 1.649122
v 0.006833 0.608174 1.649122
v -0.060794 0.004745 1.647215
v -0.060794 0.608174 1.647215
v -0.994636 0.004745 1.522252
v -0.994636 0.608174 1.522252
v -0.997415 0.004745 1.620804
v -0.997415 0.608174 1.620804
v -0.043983 0.608174 3.451223
v -0.111611 0.004745 3.449316
v -0.043983 0.004745 3.451223
v -0.111611 0.608174 3.449316
v -1.051010 0.004745 3.521457
v -1.051010 0.608174 3.521457
v -1.048231 0.004745 3.422904
v -1.048231 0.608174 3.422904
v -0.994636 0.004745 1.522252
v -0.994636 0.608174 1.522252
v -1.051010 0.004745 3.521457
v -1.051010 0.608174 3.521457
v -1.062263 0.004745 1.520345
v -1.062263 0.608174 1.520345
v -1.118638 0.004745 3.519550
v -1.118638 0.608174 3.519550
vn 0.9996 -0.0000 0.0282
vn -0.0282 -0.0000 0.9996
vn -0.0000 1.0000 -0.0000
vn 0.0282 -0.0000 -0.9996
vn -0.0000 -1.0000 -0.0000
vn -0.9996 -0.0000 -0.0282
vt 0.375000 0.237676
vt 0.625000 0.237676
vt 0.625000 0.250000
vt 0.375000 0.250000
vt 0.625000 0.500000
vt 0.375000 0.500000
vt 0.625000 0.737676
vt 0.625000 0.750000
vt 0.375000 0.750000
vt 0.625000 1.000000
vt 0.375000 1.000000
vt 0.125000 0.737676
vt 0.375000 0.737676
vt 0.125000 0.750000
vt 0.875000 0.737676
vt 0.875000 0.750000
vt 0.625000 0.512324
vt 0.875000 0.512324
vt 0.125000 0.512324
vt 0.375000 0.512324
vt 0.375000 0.000000
vt 0.625000 0.000000
vt 0.625000 0.012324
vt 0.375000 0.012324
vt 0.125000 0.500000
vt 0.875000 0.500000
s 0
f 83/105/65 81/106/65 68/107/65 67/108/65
f 67/108/66 68/107/66 72/109/66 71/110/66
f 76/111/67 70/112/67 78/112/67 80/111/67
f 69/113/68 70/112/68 66/114/68 65/115/68
f 73/116/69 75/117/69 69/113/69 65/118/69
f 76/111/67 74/119/67 66/120/67 70/112/67
f 84/121/67 81/122/67 74/119/67 76/111/67
f 83/123/69 82/124/69 75/117/69 73/116/69
f 82/124/70 84/121/70 76/111/70 75/117/70
f 65/125/65 66/126/65 74/127/65 73/128/65
f 79/117/70 80/111/70 78/112/70 77/113/70
f 70/112/68 69/113/68 77/113/68 78/112/68
f 75/117/66 76/111/66 80/111/66 79/117/66
f 69/113/69 75/117/69 79/117/69 77/113/69
f 84/121/68 82/124/68 87/124/68 88/121/68
f 67/129/69 71/110/69 82/124/69 83/123/69
f 72/109/67 68/130/67 81/122/67 84/121/67
f 73/128/65 74/127/65 81/106/65 83/105/65
f 85/110/70 86/109/70 88/121/70 87/124/70
f 71/110/66 72/109/66 86/109/66 85/110/66
f 72/109/67 84/121/67 88/121/67 86/109/67
f 82/124/69 71/110/69 85/110/69 87/124/69
f 89/125/65 90/126/65 92/107/65 91/108/65
f 91/108/66 92/107/66 96/109/66 95/110/66
f 95/110/70 96/109/70 94/112/70 93/113/70
f 93/113/68 94/112/68 90/114/68 89/115/68
f 91/129/69 95/110/69 93/113/69 89/118/69
f 96/109/67 92/130/67 90/120/67 94/112/67
