# Blender 4.2.0
# www.blender.org
mtllib schooldeskv1.mtl
o tabletop
v 0.066554 0.770000 -0.018814
v 0.000092 0.770000 -0.000092
v 0.533524 0.770000 -0.018814
v 0.599908 0.770000 -0.000092
v 0.046554 0.770000 -0.451263
v 0.000092 0.770000 -0.499908
v 0.600908 0.770000 -0.500908
v 0.534369 0.770000 -0.452109
v 0.000092 0.800000 -0.000092
v 0.599908 0.800000 -0.000092
v 0.000092 0.800000 -0.499908
v 0.046554 0.690000 -0.451263
v 0.600908 0.800000 -0.500908
v 0.534369 0.690000 -0.452109
v 0.046554 0.770000 -0.038814
v 0.553524 0.770000 -0.038814
v 0.046554 0.770000 -0.461263
v 0.554369 0.770000 -0.462109
v 0.046554 0.660000 -0.038814
v 0.553524 0.660000 -0.038814
v 0.046554 0.660000 -0.461263
v 0.554369 0.660000 -0.462109
v 0.065629 0.690000 -0.038814
v 0.065629 0.770000 -0.038814
v 0.533563 0.770000 -0.038814
v 0.533563 0.690000 -0.038814
vn -0.0000 -1.0000 -0.0000
vn -0.0000 1.0000 -0.0000
vn -0.0017 -0.0000 -1.0000
vn -0.0000 -0.0000 1.0000
vn 1.0000 -0.0000 0.0020
vn -1.0000 -0.0000 -0.0000
vn -1.0000 -0.0000 -0.0020
vn 0.9989 -0.0000 -0.0462
vn 0.0017 -0.0000 1.0000
vt 0.000000 1.000000
vt 1.000000 1.000000
vt 0.000000 0.000000
vt 1.000000 0.000000
vt 0.037626 0.000000
vt 0.076707 0.000000
vt 0.923360 0.000000
vt 0.960627 0.000000
vt 0.037626 0.000000
vt 0.960627 0.000000
vt 0.037626 0.000000
vt 1.000000 0.046158
vt 1.000000 0.046158
vt 1.000000 0.046158
vt 0.000000 0.046248
s 0
f 6/1/1 7/2/1 18/2/1 17/1/1
f 9/3/2 10/4/2 13/2/2 11/1/2
f 7/2/3 6/1/3 11/1/3 13/2/3
f 2/3/4 4/4/4 10/4/4 9/3/4
f 4/4/5 7/2/5 13/2/5 10/4/5
f 6/1/6 2/3/6 9/3/6 11/1/6
f 18/2/5 16/4/5 20/4/5 22/2/5
f 16/4/1 4/4/1 2/3/1 15/3/1 24/5/1 1/6/1 3/7/1 25/8/1
f 7/2/1 4/4/1 16/4/1 18/2/1
f 2/3/1 6/1/1 17/1/1 15/3/1
f 19/3/1 21/1/1 22/2/1 20/4/1
f 15/3/6 17/1/6 21/1/6 19/3/6
f 17/1/3 18/2/3 22/2/3 21/1/3
f 24/9/4 15/3/4 19/3/4 20/4/4 16/4/4 25/8/4 26/10/4 23/11/4
f 25/12/7 8/2/7 14/2/7 26/13/7
f 26/14/2 14/2/2 12/1/2 23/15/2
f 23/15/8 12/1/8 5/1/8 24/15/8
f 5/1/9 12/1/9 14/2/9 8/2/9
f 5/1/1 8/2/1 25/12/1 24/15/1
f 25/12/1 3/4/1 1/3/1 24/15/1
o legs
v 0.050000 0.000000 -0.050000
v 0.050000 0.660000 -0.050000
v 0.050000 0.000000 -0.130000
v 0.050000 0.660000 -0.130000
v 0.120000 0.000000 -0.050000
v 0.120000 0.660000 -0.050000
v 0.120000 0.000000 -0.130000
v 0.120000 0.660000 -0.130000
vn -1.0000 -0.0000 -0.0000
vn -0.0000 -0.0000 1.0000
vn 1.0000 -0.0000 -0.0000
vn -0.0000 -0.0000 -1.0000
vt 0.000000 0.000000
s 0
f 29/16/10 27/16/10 28/16/10 30/16/10
f 28/16/11 27/16/11 31/16/11 32/16/11
f 31/16/12 33/16/12 34/16/12 32/16/12
f 33/16/13 29/16/13 30/16/13 34/16/13
o legs.001
v 0.050000 0.000000 -0.370000
v 0.050000 0.660000 -0.370000
v 0.050000 0.000000 -0.450000
v 0.050000 0.660000 -0.450000
v 0.120000 0.000000 -0.370000
v 0.120000 0.660000 -0.370000
v 0.120000 0.000000 -0.450000
v 0.120000 0.660000 -0.450000
vn -1.0000 -0.0000 -0.0000
vn 1.0000 -0.0000 -0.0000
vn -0.0000 -0.0000 1.0000
vn -0.0000 -0.0000 -1.0000
vt 0.000000 0.000000
s 0
f 39/17/14 40/17/14 42/17/14 41/17/14
f 37/17/15 38/17/15 36/17/15 35/17/15
f 41/17/16 42/17/16 38/17/16 37/17/16
f 35/17/17 36/17/17 40/17/17 39/17/17
o legs.002
v 0.480000 0.000000 -0.050000
v 0.480000 0.660000 -0.050000
v 0.480000 0.000000 -0.130000
v 0.480000 0.660000 -0.130000
v 0.550000 0.000000 -0.050000
v 0.550000 0.660000 -0.050000
v 0.550000 0.000000 -0.130000
v 0.550000 0.660000 -0.130000
vn -1.0000 -0.0000 -0.0000
vn -0.0000 -0.0000 1.0000
vn -0.0000 -0.0000 -1.0000
vn 1.0000 -0.0000 -0.0000
vt 0.000000 0.000000
s 0
f 47/18/18 48/18/18 50/18/18 49/18/18
f 49/18/19 50/18/19 46/18/19 45/18/19
f 48/18/20 47/18/20 43/18/20 44/18/20
f 45/18/21 46/18/21 44/18/21 43/18/21
o legs.003
v 0.480000 0.000000 -0.370000
v 0.480000 0.660000 -0.370000
v 0.480000 0.000000 -0.450000
v 0.480000 0.660000 -0.450000
v 0.550000 0.000000 -0.370000
v 0.550000 0.660000 -0.370000
v 0.550000 0.000000 -0.450000
v 0.550000 0.660000 -0.450000
vn -1.0000 -0.0000 -0.0000
vn -0.0000 -0.0000 -1.0000
vn 1.0000 -0.0000 -0.0000
vn -0.0000 -0.0000 1.0000
vt 0.000000 0.000000
s 0
f 53/19/22 51/19/22 52/19/22 54/19/22
f 57/19/23 53/19/23 54/19/23 58/19/23
f 55/19/24 57/19/24 58/19/24 56/19/24
f 51/19/25 55/19/25 56/19/25 52/19/25
o legs.004
v 0.492500 0.138000 -0.411000
v 0.492500 0.138000 -0.081000
v 0.492500 0.218000 -0.411000
v 0.492500 0.218000 -0.081000
v 0.541500 0.138000 -0.411000
v 0.541500 0.138000 -0.081000
v 0.541500 0.218000 -0.411000
v 0.541500 0.218000 -0.081000
vn -1.0000 -0.0000 -0.0000
vn -0.0000 -1.0000 -0.0000
vn -0.0000 1.0000 -0.0000
vn 1.0000 -0.0000 -0.0000
vt 0.000000 0.000000
s 0
f 63/20/26 64/20/26 66/20/26 65/20/26
f 65/20/27 66/20/27 62/20/27 61/20/27
f 64/20/28 63/20/28 59/20/28 60/20/28
f 61/20/29 62/20/29 60/20/29 59/20/29
o legs.005
v 0.060500 0.138000 -0.411000
v 0.060500 0.138000 -0.081000
v 0.060500 0.218000 -0.411000
v 0.060500 0.218000 -0.081000
v 0.109500 0.138000 -0.411000
v 0.109500 0.138000 -0.081000
v 0.109500 0.218000 -0.411000
v 0.109500 0.218000 -0.081000
vn -1.0000 -0.0000 -0.0000
vn -0.0000 -1.0000 -0.0000
vn -0.0000 1.0000 -0.0000
vn 1.0000 -0.0000 -0.0000
vt 0.000000 0.000000
s 0
f 71/21/30 72/21/30 74/21/30 73/21/30
f 73/21/31 74/21/31 70/21/31 69/21/31
f 72/21/32 71/21/32 67/21/32 68/21/32
f 69/21/33 70/21/33 68/21/33 67/21/33
o legs.006
v 0.486024 0.228000 -0.436500
v 0.111977 0.228000 -0.436500
v 0.486024 0.308000 -0.436500
v 0.111977 0.308000 -0.436500
v 0.486024 0.228000 -0.387500
v 0.111977 0.228000 -0.387500
v 0.486024 0.308000 -0.387500
v 0.111977 0.308000 -0.387500
vn -0.0000 -0.0000 -1.0000
vn -0.0000 -1.0000 -0.0000
vn -0.0000 1.0000 -0.0000
vn -0.0000 -0.0000 1.0000
vt 0.000000 0.000000
s 0
f 79/22/34 80/22/34 82/22/34 81/22/34
f 81/22/35 82/22/35 78/22/35 77/22/35
f 80/22/36 79/22/36 75/22/36 76/22/36
f 77/22/37 78/22/37 76/22/37 75/22/37
