# Blender 4.2.0
# www.blender.org
mtllib singlehardwoodchair.mtl
o seat
v -0.996160 1.747401 0.996160
v 0.996160 1.747401 0.996160
v -1.046746 1.747401 -1.196160
v 1.046746 1.747401 -1.196160
v -0.996160 1.601009 0.996160
v 0.996160 1.601009 0.996160
v -1.046746 1.601009 -1.196160
v 1.046746 1.601009 -1.196160
v -1.029504 1.747401 -0.757696
v -1.013533 1.747401 -0.319232
v -0.996160 1.747401 0.266994
v -0.996160 1.747401 0.689235
v 0.996160 1.747401 0.689235
v 0.996160 1.747401 0.266994
v 1.013533 1.747401 -0.319232
v 1.029504 1.747401 -0.757696
v -1.029504 1.601009 -0.757696
v -1.013533 1.601009 -0.319232
v -0.996160 1.601009 0.266994
v -0.996160 1.601009 0.689235
v 0.996160 1.601009 0.689235
v 0.996160 1.601009 0.266994
v 1.013533 1.601009 -0.319232
v 1.029504 1.601009 -0.757696
v -0.597696 1.747401 0.996160
v -0.199232 1.747401 0.996160
v 0.199232 1.747401 0.996160
v 0.597696 1.747401 0.996160
v 0.628047 1.747401 -1.196160
v 0.209349 1.747401 -1.196160
v -0.209349 1.747401 -1.196160
v -0.628047 1.747401 -1.196160
v -0.597696 1.601009 0.996160
v -0.199232 1.601009 0.996160
v 0.199232 1.601009 0.996160
v 0.597696 1.601009 0.996160
v 0.628047 1.601009 -1.196160
v 0.209349 1.601009 -1.196160
v -0.209349 1.601009 -1.196160
v -0.628047 1.601009 -1.196160
v 0.597696 1.601009 0.689235
v 0.199232 1.601009 0.689235
v -0.199232 1.601009 0.689235
v -0.597696 1.601009 0.689235
v 0.597696 1.601009 0.266994
v 0.199232 1.601009 0.266994
v -0.199232 1.601009 0.266994
v -0.597696 1.601009 0.266994
v 0.608120 1.601009 -0.319232
v 0.202707 1.601009 -0.319232
v -0.202707 1.601009 -0.319232
v -0.608120 1.601009 -0.319232
v 0.617703 1.601009 -0.757696
v 0.205901 1.601009 -0.757696
v -0.205901 1.601009 -0.757696
v -0.617703 1.601009 -0.757696
v -0.597696 1.747401 0.689235
v -0.199232 1.747401 0.689235
v 0.199232 1.747401 0.689235
v 0.597696 1.747401 0.689235
v -0.597696 1.747401 0.266994
v -0.199232 1.747401 0.266994
v 0.199232 1.747401 0.266994
v 0.597696 1.747401 0.266994
v -0.608120 1.747401 -0.319232
v -0.202707 1.747401 -0.319232
v 0.202707 1.747401 -0.319232
v 0.608120 1.747401 -0.319232
v -0.617703 1.747401 -0.757696
v -0.205901 1.747401 -0.757696
v 0.205901 1.747401 -0.757696
v 0.617703 1.747401 -0.757696
vn -0.0000 -1.0000 -0.0000
vn -0.0000 1.0000 -0.0000
vn -0.0000 -0.0000 1.0000
vn -0.0000 -0.0000 -1.0000
vn -0.9992 -0.0000 -0.0393
vn 1.0000 -0.0000 -0.0000
vn 0.9992 -0.0000 -0.0393
vn 0.9993 -0.0000 -0.0364
vn 0.9996 -0.0000 -0.0296
vn -1.0000 -0.0000 -0.0000
vn -0.9996 -0.0000 -0.0296
vn -0.9993 -0.0000 -0.0364
vt 0.800000 0.800000
vt 0.800000 1.000000
vt 1.000000 1.000000
vt 1.000000 0.800000
vt 0.800000 0.800000
vt 0.200000 1.000000
vt 0.000000 1.000000
vt 0.800000 0.000000
vt 1.000000 0.000000
vt 0.000000 0.140000
vt 0.000000 0.000000
vt 0.000000 0.800000
vt 0.000000 0.600000
vt 0.000000 0.332600
vt 1.000000 0.140000
vt 1.000000 0.332600
vt 1.000000 0.600000
vt 0.800000 0.140000
vt 0.800000 0.332600
vt 0.800000 0.600000
vt 0.800000 0.140000
vt 0.800000 0.332600
vt 0.200000 0.800000
vt 0.200000 0.600000
vt 0.400000 0.800000
vt 0.400000 0.600000
vt 0.600000 0.800000
vt 0.600000 0.600000
vt 0.200000 0.332600
vt 0.400000 0.332600
vt 0.600000 0.332600
vt 0.200000 0.140000
vt 0.400000 0.140000
vt 0.600000 0.140000
vt 0.200000 0.000000
vt 0.400000 0.000000
vt 0.600000 0.000000
vt 0.200000 0.800000
vt 0.400000 0.800000
vt 0.600000 0.800000
vt 0.200000 0.332600
vt 0.400000 0.332600
vt 0.200000 0.140000
vt 0.400000 0.140000
vt 0.600000 0.140000
vt 0.600000 1.000000
vt 0.400000 1.000000
s 0
f 72/1/1 29/2/1 4/3/1 16/4/1
f 53/5/2 24/4/2 8/3/2 37/2/2
f 32/6/3 3/7/3 7/7/3 40/6/3
f 28/8/4 2/9/4 6/9/4 36/8/4
f 16/4/5 4/3/5 8/3/5 24/4/5
f 12/10/6 1/11/6 5/11/6 20/10/6
f 3/7/7 9/12/7 17/12/7 7/7/7
f 9/12/8 10/13/8 18/13/8 17/12/8
f 10/13/9 11/14/9 19/14/9 18/13/9
f 11/14/6 12/10/6 20/10/6 19/14/6
f 2/9/10 13/15/10 21/15/10 6/9/10
f 13/15/10 14/16/10 22/16/10 21/15/10
f 14/16/11 15/17/11 23/17/11 22/16/11
f 15/17/12 16/4/12 24/4/12 23/17/12
f 36/8/2 6/9/2 21/15/2 41/18/2
f 41/18/2 21/15/2 22/16/2 45/19/2
f 45/19/2 22/16/2 23/17/2 49/20/2
f 49/20/2 23/17/2 24/4/2 53/5/2
f 28/8/1 60/21/1 13/15/1 2/9/1
f 60/21/1 64/22/1 14/16/1 13/15/1
f 64/22/1 68/20/1 15/17/1 14/16/1
f 68/20/1 72/1/1 16/4/1 15/17/1
f 10/13/1 9/12/1 69/23/1 65/24/1
f 65/24/1 69/23/1 70/25/1 66/26/1
f 66/26/1 70/25/1 71/27/1 67/28/1
f 67/28/1 71/27/1 72/1/1 68/20/1
f 11/14/1 10/13/1 65/24/1 61/29/1
f 61/29/1 65/24/1 66/26/1 62/30/1
f 62/30/1 66/26/1 67/28/1 63/31/1
f 63/31/1 67/28/1 68/20/1 64/22/1
f 12/10/1 11/14/1 61/29/1 57/32/1
f 57/32/1 61/29/1 62/30/1 58/33/1
f 58/33/1 62/30/1 63/31/1 59/34/1
f 59/34/1 63/31/1 64/22/1 60/21/1
f 1/11/1 12/10/1 57/32/1 25/35/1
f 25/35/1 57/32/1 58/33/1 26/36/1
f 26/36/1 58/33/1 59/34/1 27/37/1
f 27/37/1 59/34/1 60/21/1 28/8/1
f 18/13/2 52/24/2 56/38/2 17/12/2
f 52/24/2 51/26/2 55/39/2 56/38/2
f 51/26/2 50/28/2 54/40/2 55/39/2
f 50/28/2 49/20/2 53/5/2 54/40/2
f 19/14/2 48/41/2 52/24/2 18/13/2
f 48/41/2 47/42/2 51/26/2 52/24/2
f 47/42/2 46/31/2 50/28/2 51/26/2
f 46/31/2 45/19/2 49/20/2 50/28/2
f 20/10/2 44/43/2 48/41/2 19/14/2
f 44/43/2 43/44/2 47/42/2 48/41/2
f 43/44/2 42/45/2 46/31/2 47/42/2
f 42/45/2 41/18/2 45/19/2 46/31/2
f 5/11/2 33/35/2 44/43/2 20/10/2
f 33/35/2 34/36/2 43/44/2 44/43/2
f 34/36/2 35/37/2 42/45/2 43/44/2
f 35/37/2 36/8/2 41/18/2 42/45/2
f 1/11/4 25/35/4 33/35/4 5/11/4
f 25/35/4 26/36/4 34/36/4 33/35/4
f 26/36/4 27/37/4 35/37/4 34/36/4
f 27/37/4 28/8/4 36/8/4 35/37/4
f 4/3/3 29/2/3 37/2/3 8/3/3
f 29/2/3 30/46/3 38/46/3 37/2/3
f 30/46/3 31/47/3 39/47/3 38/46/3
f 31/47/3 32/6/3 40/6/3 39/47/3
f 17/12/2 56/38/2 40/6/2 7/7/2
f 56/38/2 55/39/2 39/47/2 40/6/2
f 55/39/2 54/40/2 38/46/2 39/47/2
f 54/40/2 53/5/2 37/2/2 38/46/2
f 9/12/1 3/7/1 32/6/1 69/23/1
f 69/23/1 32/6/1 31/47/1 70/25/1
f 70/25/1 31/47/1 30/46/1 71/27/1
f 71/27/1 30/46/1 29/2/1 72/1/1
o rear_legs
v 0.714667 0.001673 1.092211
v 0.714667 3.406546 1.062211
v 0.714667 0.001673 0.908433
v 0.714667 3.406546 0.898433
v 1.018445 0.001673 1.092211
v 1.018445 3.406546 1.062211
v 1.018445 0.001673 0.908433
v 1.018445 3.406546 0.898433
v 0.714667 0.302258 1.062211
v 0.714667 0.863349 1.032211
v 0.714667 2.038234 1.012211
v 0.714667 2.986253 1.042211
v 0.714667 2.986253 0.818433
v 0.714667 2.038234 0.738433
v 0.714667 0.863349 0.758433
v 0.714667 0.302258 0.838433
v 1.018445 2.986253 0.818433
v 1.018445 2.038234 0.738433
v 1.018445 0.863349 0.758433
v 1.018445 0.302258 0.838433
v 1.018445 2.986253 1.042211
v 1.018445 2.038234 1.012211
v 1.018445 0.863349 1.032211
v 1.018445 0.302258 1.062211
v 0.714667 1.450792 1.022211
v 0.714667 1.450792 0.738433
v 1.018445 1.450792 0.738433
v 1.018445 1.450792 1.022211
v -0.714667 0.001673 1.092211
v -0.714667 3.406546 1.062211
v -0.714667 0.001673 0.908433
v -0.714667 3.406546 0.898433
v -1.018445 0.001673 1.092211
v -1.018445 3.406546 1.062211
v -1.018445 0.001673 0.908433
v -1.018445 3.406546 0.898433
v -0.714667 0.302258 1.062211
v -0.714667 0.863349 1.032211
v -0.714667 2.038234 1.012211
v -0.714667 2.986253 1.042211
v -0.714667 2.986253 0.818433
v -0.714667 2.038234 0.738433
v -0.714667 0.863349 0.758433
v -0.714667 0.302258 0.838433
v -1.018445 2.986253 0.818433
v -1.018445 2.038234 0.738433
v -1.018445 0.863349 0.758433
v -1.018445 0.302258 0.838433
v -1.018445 2.986253 1.042211
v -1.018445 2.038234 1.012211
v -1.018445 0.863349 1.032211
v -1.018445 0.302258 1.062211
v -0.714667 1.450792 1.022211
v -0.714667 1.450792 0.738433
v -1.018445 1.450792 0.738433
v -1.018445 1.450792 1.022211
vn -1.0000 -0.0000 -0.0000
vn -0.0000 0.1870 -0.9824
vn 1.0000 -0.0000 -0.0000
vn -0.0000 -0.0475 0.9989
vn -0.0000 -1.0000 -0.0000
vn -0.0000 1.0000 -0.0000
vn -0.0000 0.0993 0.9951
vn -0.0000 0.0534 0.9986
vn -0.0000 0.0170 0.9999
vn -0.0000 -0.0316 0.9995
vn -0.0000 -0.2268 -0.9739
vn -0.0000 -0.1412 -0.9900
vn -0.0000 -0.0000 -1.0000
vn -0.0000 0.0841 -0.9965
vn -0.0000 -0.0340 -0.9994
vt 0.610000 0.000000
vt 0.625000 0.000000
vt 0.625000 0.250000
vt 0.610000 0.250000
vt 0.625000 0.500000
vt 0.610000 0.500000
vt 0.625000 0.750000
vt 0.610000 0.750000
vt 0.625000 1.000000
vt 0.610000 1.000000
vt 0.125000 0.500000
vt 0.375000 0.500000
vt 0.375000 0.750000
vt 0.125000 0.750000
vt 0.875000 0.500000
vt 0.875000 0.750000
vt 0.405000 0.750000
vt 0.405000 1.000000
vt 0.375000 1.000000
vt 0.461000 0.750000
vt 0.461000 1.000000
vt 0.504225 0.750000
vt 0.547450 0.750000
vt 0.547450 1.000000
vt 0.504225 1.000000
vt 0.405000 0.500000
vt 0.461000 0.500000
vt 0.504225 0.500000
vt 0.547450 0.500000
vt 0.375000 0.250000
vt 0.405000 0.250000
vt 0.461000 0.250000
vt 0.504225 0.250000
vt 0.547450 0.250000
vt 0.375000 0.000000
vt 0.405000 0.000000
vt 0.461000 0.000000
vt 0.504225 0.000000
vt 0.547450 0.000000
s 0
f 84/48/13 74/49/13 76/50/13 85/51/13
f 85/51/14 76/50/14 80/52/14 89/53/14
f 89/53/15 80/52/15 78/54/15 93/55/15
f 93/55/16 78/54/16 74/56/16 84/57/16
f 75/58/17 79/59/17 77/60/17 73/61/17
f 80/52/18 76/62/18 74/63/18 78/54/18
f 77/60/19 96/64/19 81/65/19 73/66/19
f 96/64/20 95/67/20 82/68/20 81/65/20
f 100/69/21 94/70/21 83/71/21 97/72/21
f 94/70/22 93/55/22 84/57/22 83/71/22
f 79/59/15 92/73/15 96/64/15 77/60/15
f 92/73/15 91/74/15 95/67/15 96/64/15
f 99/75/15 90/76/15 94/70/15 100/69/15
f 90/76/15 89/53/15 93/55/15 94/70/15
f 75/77/23 88/78/23 92/73/23 79/59/23
f 88/78/24 87/79/24 91/74/24 92/73/24
f 98/80/25 86/81/25 90/76/25 99/75/25
f 86/81/26 85/51/26 89/53/26 90/76/26
f 73/82/13 81/83/13 88/78/13 75/77/13
f 81/83/13 82/84/13 87/79/13 88/78/13
f 97/85/13 83/86/13 86/81/13 98/80/13
f 83/86/13 84/48/13 85/51/13 86/81/13
f 82/84/13 97/85/13 98/80/13 87/79/13
f 87/79/27 98/80/27 99/75/27 91/74/27
f 91/74/15 99/75/15 100/69/15 95/67/15
f 95/67/21 100/69/21 97/72/21 82/68/21
f 112/48/15 113/51/15 104/50/15 102/49/15
f 113/51/14 117/53/14 108/52/14 104/50/14
f 117/53/13 121/55/13 106/54/13 108/52/13
f 121/55/16 112/57/16 102/56/16 106/54/16
f 103/58/17 101/61/17 105/60/17 107/59/17
f 108/52/18 106/54/18 102/63/18 104/62/18
f 105/60/19 101/66/19 109/65/19 124/64/19
f 124/64/20 109/65/20 110/68/20 123/67/20
f 128/69/21 125/72/21 111/71/21 122/70/21
f 122/70/22 111/71/22 112/57/22 121/55/22
f 107/59/13 105/60/13 124/64/13 120/73/13
f 120/73/13 124/64/13 123/67/13 119/74/13
f 127/75/13 128/69/13 122/70/13 118/76/13
f 118/76/13 122/70/13 121/55/13 117/53/13
f 103/77/23 107/59/23 120/73/23 116/78/23
f 116/78/24 120/73/24 119/74/24 115/79/24
f 126/80/25 127/75/25 118/76/25 114/81/25
f 114/81/26 118/76/26 117/53/26 113/51/26
f 101/82/15 103/77/15 116/78/15 109/83/15
f 109/83/15 116/78/15 115/79/15 110/84/15
f 125/85/15 126/80/15 114/81/15 111/86/15
f 111/86/15 114/81/15 113/51/15 112/48/15
f 110/84/15 115/79/15 126/80/15 125/85/15
f 115/79/27 119/74/27 127/75/27 126/80/27
f 119/74/13 123/67/13 128/69/13 127/75/13
f 123/67/21 110/68/21 125/72/21 128/69/21
o front_legs
v 0.714667 -0.001033 -0.775939
v 0.714667 1.602059 -0.775939
v 0.714667 -0.001033 -1.059717
v 0.714667 1.602059 -1.059717
v 0.988445 -0.001033 -0.775939
v 0.988445 1.602059 -0.775939
v 0.988445 -0.001033 -1.059717
v 0.988445 1.602059 -1.059717
v -0.714667 -0.001033 -0.775939
v -0.714667 1.602059 -0.775939
v -0.714667 -0.001033 -1.059717
v -0.714667 1.602059 -1.059717
v -0.988445 -0.001033 -0.775939
v -0.988445 1.602059 -0.775939
v -0.988445 -0.001033 -1.059717
v -0.988445 1.602059 -1.059717
vn -1.0000 -0.0000 -0.0000
vn -0.0000 -0.0000 -1.0000
vn 1.0000 -0.0000 -0.0000
vn -0.0000 -0.0000 1.0000
vn -0.0000 -1.0000 -0.0000
vn -0.0000 1.0000 -0.0000
vt 0.375000 0.000000
vt 0.625000 0.000000
vt 0.625000 0.250000
vt 0.375000 0.250000
vt 0.625000 0.500000
vt 0.375000 0.500000
vt 0.625000 0.750000
vt 0.375000 0.750000
vt 0.625000 1.000000
vt 0.375000 1.000000
vt 0.125000 0.500000
vt 0.125000 0.750000
vt 0.875000 0.500000
vt 0.875000 0.750000
s 0
f 129/87/28 130/88/28 132/89/28 131/90/28
f 131/90/29 132/89/29 136/91/29 135/92/29
f 135/92/30 136/91/30 134/93/30 133/94/30
f 133/94/31 134/93/31 130/95/31 129/96/31
f 131/97/32 135/92/32 133/94/32 129/98/32
f 136/91/33 132/99/33 130/100/33 134/93/33
f 137/87/30 139/90/30 140/89/30 138/88/30
f 139/90/29 143/92/29 144/91/29 140/89/29
f 143/92/28 141/94/28 142/93/28 144/91/28
f 141/94/31 137/96/31 138/95/31 142/93/31
f 139/97/32 137/98/32 141/94/32 143/92/32
f 144/91/33 142/93/33 138/100/33 140/99/33
o left/right_plank
v 0.780000 1.138403 0.885114
v 0.780000 1.661597 0.885114
v 0.780000 1.138403 -0.885114
v 0.780000 1.661597 -0.885114
v 0.940000 1.138403 0.885114
v 0.940000 1.661597 0.885114
v 0.940000 1.138403 -0.885114
v 0.940000 1.661597 -0.885114
v -0.780000 1.138403 0.885114
v -0.780000 1.661597 0.885114
v -0.780000 1.138403 -0.885114
v -0.780000 1.661597 -0.885114
v -0.940000 1.138403 0.885114
v -0.940000 1.661597 0.885114
v -0.940000 1.138403 -0.885114
v -0.940000 1.661597 -0.885114
vn -1.0000 -0.0000 -0.0000
vn -0.0000 -0.0000 -1.0000
vn 1.0000 -0.0000 -0.0000
vn -0.0000 -0.0000 1.0000
vn -0.0000 -1.0000 -0.0000
vn -0.0000 1.0000 -0.0000
vt 0.375000 0.000000
vt 0.625000 0.000000
vt 0.625000 0.250000
vt 0.375000 0.250000
vt 0.625000 0.500000
vt 0.375000 0.500000
vt 0.625000 0.750000
vt 0.375000 0.750000
vt 0.625000 1.000000
vt 0.375000 1.000000
vt 0.125000 0.500000
vt 0.125000 0.750000
vt 0.875000 0.500000
vt 0.875000 0.750000
s 0
f 145/101/34 146/102/34 148/103/34 147/104/34
f 147/104/35 148/103/35 152/105/35 151/106/35
f 151/106/36 152/105/36 150/107/36 149/108/36
f 149/108/37 150/107/37 146/109/37 145/110/37
f 147/111/38 151/106/38 149/108/38 145/112/38
f 152/105/39 148/113/39 146/114/39 150/107/39
f 153/101/36 155/104/36 156/103/36 154/102/36
f 155/104/35 159/106/35 160/105/35 156/103/35
f 159/106/34 157/108/34 158/107/34 160/105/34
f 157/108/37 153/110/37 154/109/37 158/107/37
f 155/111/38 153/112/38 157/108/38 159/106/38
f 160/105/39 158/107/39 154/114/39 156/113/39
o front/rear_plank
v -0.885114 1.138403 0.780000
v -0.885114 1.661597 0.780000
v 0.885114 1.138403 0.780000
v 0.885114 1.661597 0.780000
v -0.885114 1.138403 0.940000
v -0.885114 1.661597 0.940000
v 0.885114 1.138403 0.940000
v 0.885114 1.661597 0.940000
v -0.885114 1.138403 -0.780000
v -0.885114 1.661597 -0.780000
v 0.885114 1.138403 -0.780000
v 0.885114 1.661597 -0.780000
v -0.885114 1.138403 -0.940000
v -0.885114 1.661597 -0.940000
v 0.885114 1.138403 -0.940000
v 0.885114 1.661597 -0.940000
vn -0.0000 -0.0000 -1.0000
vn 1.0000 -0.0000 -0.0000
vn -0.0000 -0.0000 1.0000
vn -1.0000 -0.0000 -0.0000
vn -0.0000 -1.0000 -0.0000
vn -0.0000 1.0000 -0.0000
vt 0.375000 0.000000
vt 0.625000 0.000000
vt 0.625000 0.250000
vt 0.375000 0.250000
vt 0.625000 0.500000
vt 0.375000 0.500000
vt 0.625000 0.750000
vt 0.375000 0.750000
vt 0.625000 1.000000
vt 0.375000 1.000000
vt 0.125000 0.500000
vt 0.125000 0.750000
vt 0.875000 0.500000
vt 0.875000 0.750000
s 0
f 161/115/40 162/116/40 164/117/40 163/118/40
f 163/118/41 164/117/41 168/119/41 167/120/41
f 167/120/42 168/119/42 166/121/42 165/122/42
f 165/122/43 166/121/43 162/123/43 161/124/43
f 163/125/44 167/120/44 165/122/44 161/126/44
f 168/119/45 164/127/45 162/128/45 166/121/45
f 169/115/42 171/118/42 172/117/42 170/116/42
f 171/118/41 175/120/41 176/119/41 172/117/41
f 175/120/40 173/122/40 174/121/40 176/119/40
f 173/122/43 169/124/43 170/123/43 174/121/43
f 171/125/44 169/126/44 173/122/44 175/120/44
f 176/119/45 174/121/45 170/128/45 172/127/45
o head_rest
v -0.776207 2.971491 0.925693
v 0.776207 2.971491 0.925693
v -0.776207 3.293858 0.954546
v 0.776207 3.293858 0.954546
v -0.776207 2.966142 0.985454
v 0.776207 2.966142 0.985454
v -0.776207 3.288509 1.014307
v 0.776207 3.288509 1.014307
vn -0.0000 0.0891 -0.9960
vn -0.0000 -0.0891 0.9960
vn 1.0000 -0.0000 -0.0000
vn -1.0000 -0.0000 -0.0000
vn -0.0000 0.9960 0.0891
vn -0.0000 -0.9960 -0.0891
vt 0.000000 0.000000
vt 0.000000 1.000000
vt 1.000000 1.000000
vt 1.000000 0.000000
s 0
f 177/129/46 179/130/46 180/131/46 178/132/46
f 181/129/47 182/132/47 184/131/47 183/130/47
f 178/132/48 180/131/48 184/131/48 182/132/48
f 179/130/49 177/129/49 181/129/49 183/130/49
f 180/131/50 179/130/50 183/130/50 184/131/50
f 177/129/51 178/132/51 182/132/51 181/129/51
