# Blender 4.0.2
# www.blender.org
mtllib storecountertop.mtl
o counter
v -3.138869 0.041366 11.534036
v -3.138869 2.041366 11.534036
v -3.138869 0.041366 9.824262
v -3.138869 2.041366 9.824262
v 3.138869 0.041366 11.534036
v 3.138869 2.041366 11.534036
v 3.138869 0.041366 9.824262
v 3.138869 2.041366 9.824262
v 1.338958 0.041366 9.086934
v -1.338958 0.041366 9.086934
v -1.338958 2.041366 9.086934
v 1.338958 2.041366 9.086934
v -1.338958 0.041366 10.796707
v 1.338958 0.041366 10.796707
v 1.338958 2.041366 10.796707
v -1.338958 2.041366 10.796707
v -3.004511 1.967569 11.481662
v -3.004511 1.967569 9.845075
v 3.004511 1.967569 9.845075
v 3.004511 1.967569 11.481662
v 1.281644 1.967569 10.775894
v -1.281644 1.967569 10.775894
v -1.281644 1.967569 9.139307
v 1.281644 1.967569 9.139307
v -3.004793 1.911601 9.845031
v 3.004793 1.911601 9.845031
v 3.004793 1.911601 11.481771
v 1.281765 1.911601 10.775938
v -1.281765 1.911601 10.775938
v -1.281765 1.911601 9.139197
v 1.281765 1.911601 9.139197
v -3.004793 1.911601 11.481771
v -3.132284 1.817791 9.825282
v 3.132284 1.817791 9.825282
v 3.132284 1.817791 11.531468
v 1.336149 1.817791 10.795687
v -1.336149 1.817791 10.795687
v -1.336149 1.817791 9.089500
v 1.336149 1.817791 9.089500
v -3.132284 1.817791 11.531468
v -3.137122 2.004467 11.533354
v -3.137122 2.004467 9.824533
v 3.137122 2.004467 9.824533
v 3.137122 2.004467 11.533354
v 1.338213 2.004467 10.796436
v -1.338213 2.004467 10.796436
v -1.338213 2.004467 9.087615
v 1.338213 2.004467 9.087615
vn -0.9989 -0.0473 -0.0000
vn 0.3790 -0.0247 -0.9251
vn 0.9989 -0.0473 -0.0000
vn 0.3791 0.0009 0.9254
vn -0.0000 -1.0000 -0.0000
vn -0.0000 1.0000 -0.0000
vn -0.3791 0.0009 0.9254
vn -0.0000 -0.0073 1.0000
vn -0.3790 -0.0247 -0.9251
vn -0.0000 -0.0185 -0.9998
vn -0.0000 0.0020 -1.0000
vn -0.3791 0.0026 -0.9254
vn -0.0000 0.0008 1.0000
vn -0.3791 -0.0001 0.9254
vn 0.3791 -0.0001 0.9254
vn 1.0000 0.0050 -0.0000
vn 0.3791 0.0026 -0.9254
vn -1.0000 0.0050 -0.0000
vn -0.5927 0.8055 -0.0000
vn 0.3091 0.5789 -0.7545
vn 0.5927 0.8055 -0.0000
vn 0.3790 -0.0249 0.9251
vn -0.3790 -0.0249 0.9251
vn -0.0000 0.2060 0.9786
vn -0.3091 0.5789 -0.7545
vn -0.0000 0.4681 -0.8837
vn -0.0000 0.0014 -1.0000
vn -0.3791 0.0019 -0.9254
vn -0.0000 0.0006 1.0000
vn 1.0000 0.0037 -0.0000
vn 0.3791 0.0019 -0.9254
vn -1.0000 0.0037 -0.0000
vn -0.0000 -0.8139 -0.5810
vn -0.1782 -0.8826 -0.4350
vn -0.0000 -0.4864 0.8737
vn -0.3783 0.0658 0.9234
vn 0.3783 0.0658 0.9234
vn 0.2681 -0.9634 -0.0000
vn 0.1782 -0.8826 -0.4350
vn -0.2681 -0.9634 -0.0000
vt 0.620388 0.000000
vt 0.625000 0.000000
vt 0.625000 0.250000
vt 0.620388 0.250000
vt 0.620388 0.428322
vt 0.625000 0.428322
vt 0.625000 0.500000
vt 0.620388 0.500000
vt 0.625000 0.750000
vt 0.620388 0.750000
vt 0.620388 0.928322
vt 0.625000 0.928322
vt 0.625000 1.000000
vt 0.620388 1.000000
vt 0.303322 0.500000
vt 0.375000 0.500000
vt 0.375000 0.750000
vt 0.303322 0.750000
vt 0.803322 0.500000
vt 0.875000 0.500000
vt 0.875000 0.750000
vt 0.803322 0.750000
vt 0.696678 0.500000
vt 0.696678 0.750000
vt 0.125000 0.500000
vt 0.196678 0.500000
vt 0.196678 0.750000
vt 0.125000 0.750000
vt 0.625000 0.821678
vt 0.620388 0.821678
vt 0.625000 0.321678
vt 0.620388 0.321678
vt 0.608779 0.321678
vt 0.615775 0.321678
vt 0.615775 0.428322
vt 0.608779 0.428322
vt 0.608779 0.250000
vt 0.615775 0.250000
vt 0.608779 0.821678
vt 0.615775 0.821678
vt 0.615775 0.928322
vt 0.608779 0.928322
vt 0.608779 0.750000
vt 0.615775 0.750000
vt 0.615775 1.000000
vt 0.608779 1.000000
vt 0.608779 0.500000
vt 0.615775 0.500000
vt 0.608779 0.000000
vt 0.615775 0.000000
vt 0.597053 0.000000
vt 0.597053 0.250000
vt 0.597053 0.428322
vt 0.597053 0.500000
vt 0.597053 0.750000
vt 0.597053 0.928322
vt 0.597053 1.000000
vt 0.597053 0.821678
vt 0.597053 0.321678
vt 0.375000 0.321678
vt 0.375000 0.428322
vt 0.375000 0.250000
vt 0.375000 0.821678
vt 0.375000 0.928322
vt 0.375000 1.000000
vt 0.375000 0.000000
s 0
usemtl countertop
f 41/1/1 2/2/1 4/3/1 42/4/1
f 48/5/2 12/6/2 8/7/2 43/8/2
f 43/8/3 8/7/3 6/9/3 44/10/3
f 46/11/4 16/12/4 2/13/4 41/14/4
f 11/19/6 4/20/6 2/21/6 16/22/6
f 8/7/6 12/23/6 15/24/6 6/9/6
f 12/23/6 11/19/6 16/22/6 15/24/6
f 44/10/7 6/9/7 15/29/7 45/30/7
f 45/30/8 15/29/8 16/12/8 46/11/8
f 42/4/9 4/3/9 11/31/9 47/32/9
f 47/32/10 11/31/10 12/6/10 48/5/10
f 21/40/35 45/30/35 46/11/35 22/41/35
f 20/44/36 44/10/36 45/30/36 21/40/36
f 22/41/37 46/11/37 41/14/37 17/45/37
usemtl Material.008
f 9/15/5 7/16/5 5/17/5 14/18/5
f 3/25/5 10/26/5 13/27/5 1/28/5
f 10/26/5 9/15/5 14/18/5 13/27/5
f 30/33/11 23/34/11 24/35/11 31/36/11
f 25/37/12 18/38/12 23/34/12 30/33/12
f 28/39/13 21/40/13 22/41/13 29/42/13
f 27/43/14 20/44/14 21/40/14 28/39/14
f 29/42/15 22/41/15 17/45/15 32/46/15
f 26/47/16 19/48/16 20/44/16 27/43/16
f 31/36/17 24/35/17 19/48/17 26/47/17
f 32/49/18 17/50/18 18/38/18 25/37/18
f 40/51/19 32/49/19 25/37/19 33/52/19
f 39/53/20 31/36/20 26/47/20 34/54/20
f 34/54/21 26/47/21 27/43/21 35/55/21
f 37/56/22 29/42/22 32/46/22 40/57/22
f 35/55/23 27/43/23 28/39/23 36/58/23
f 36/58/24 28/39/24 29/42/24 37/56/24
f 33/52/25 25/37/25 30/33/25 38/59/25
f 38/59/26 30/33/26 31/36/26 39/53/26
f 10/60/27 38/59/27 39/53/27 9/61/27
f 3/62/28 33/52/28 38/59/28 10/60/28
f 14/63/29 36/58/29 37/56/29 13/64/29
f 5/17/14 35/55/14 36/58/14 14/63/14
f 13/64/15 37/56/15 40/57/15 1/65/15
f 7/16/30 34/54/30 35/55/30 5/17/30
f 9/61/31 39/53/31 34/54/31 7/16/31
f 1/66/32 40/51/32 33/52/32 3/62/32
usemtl contertopunderglow
f 23/34/33 47/32/33 48/5/33 24/35/33
f 18/38/34 42/4/34 47/32/34 23/34/34
f 19/48/38 43/8/38 44/10/38 20/44/38
f 24/35/39 48/5/39 43/8/39 19/48/39
f 17/50/40 41/1/40 42/4/40 18/38/40
