# Blender 4.2.0
# www.blender.org
mtllib walltrim.mtl
o basetrim.002
v -2.517438 0.000057 6.816307
v -2.517438 0.124815 6.816307
v -2.517438 0.055204 6.410744
v -2.517438 0.056938 6.410744
v -2.517438 0.063918 6.410744
v -2.517438 0.071991 6.410744
v -2.517438 0.082032 6.410744
v -2.517438 0.101908 6.410744
v -2.517438 0.108973 6.410744
v -2.517438 0.116742 6.410744
v -2.517438 0.113471 6.410744
v -2.517441 0.116742 2.017652
v -2.517441 0.108973 2.017652
v -2.517438 0.088678 6.410744
v -2.517441 0.101908 2.017652
v -2.517441 0.050294 2.017652
v -2.517441 0.082032 2.017652
v -2.517438 0.095236 6.410744
v -2.517441 0.077163 2.017652
v -2.517441 0.071991 2.017652
v -2.517441 0.105289 2.017652
v -2.517441 0.063918 2.017652
v -2.517441 0.095236 2.017652
v -2.517438 0.105289 6.410744
v -2.517441 0.056938 2.017652
v -2.517441 0.088678 2.017652
v -2.517441 0.055204 2.017652
v -2.517441 0.113471 2.017652
v -2.517438 0.077163 6.410744
v -2.490590 0.000057 2.017652
v -2.512563 0.124815 2.017652
v -2.517438 0.050294 6.410744
v -2.490587 0.050294 6.816307
v -2.491560 0.077163 6.816307
v -2.509293 0.113471 2.017652
v -2.490590 0.055204 2.017652
v -2.499414 0.088678 2.017652
v -2.498961 0.056938 2.017652
v -2.511899 0.105289 6.816307
v -2.504765 0.095236 2.017652
v -2.491898 0.063918 2.017652
v -2.511902 0.105289 2.017652
v -2.490590 0.071991 2.017652
v -2.491564 0.077163 2.017652
v -2.504762 0.095236 6.816307
v -2.493991 0.082032 2.017652
v -2.490590 0.050294 2.017652
v -2.517441 0.124815 2.017652
v -2.510209 0.101908 2.017652
v -2.499411 0.088678 6.816307
v -2.511778 0.108973 2.017652
v -2.506024 0.116742 2.017652
v -2.509290 0.113471 6.816307
v -2.506020 0.116742 6.816307
v -2.511775 0.108973 6.816307
v -2.510206 0.101908 6.816307
v -2.517441 0.000057 2.017652
v -2.493987 0.082032 6.816307
v -2.490587 0.071991 6.816307
v -2.491894 0.063918 6.816307
v -2.498957 0.056938 6.410744
v -2.490587 0.055204 6.816307
v -2.512560 0.124815 6.816307
v -2.490587 0.000057 6.816307
vn 1.0000 -0.0000 -0.0000
vn 0.7029 -0.7113 -0.0000
vn 0.8941 0.4478 -0.0000
vn 0.8950 0.4462 -0.0000
vn 0.7748 0.6322 -0.0000
vn 0.9871 -0.1599 -0.0000
vn 0.7073 -0.7069 -0.0000
vn 0.9827 0.1850 -0.0000
vn 0.8753 -0.4836 -0.0000
vn -1.0000 -0.0000 -0.0000
vn -0.0000 -0.0002 -1.0000
vn -0.9978 -0.0000 0.0661
vn -0.9249 -0.3773 0.0473
vn -0.0000 -0.0000 -1.0000
vn 0.9994 -0.0335 -0.0000
vn -0.5772 -0.8163 0.0232
vn -0.0934 0.9956 0.0104
vn -0.8760 0.4682 0.1160
vn -0.0000 0.0001 -1.0000
vn -0.3531 -0.9348 0.0383
vn -0.9935 -0.0935 0.0646
vn -0.8943 0.4469 0.0216
vn 0.2029 0.9792 -0.0000
vn -0.9686 -0.2414 0.0589
vn -0.0000 -0.0001 -1.0000
vn -0.9253 -0.3775 0.0350
vn -0.9947 0.0806 0.0643
vn -0.9257 -0.3777 0.0227
vn 0.7770 0.6294 -0.0000
vn -0.9699 -0.2429 0.0153
vn -0.9998 0.0168 0.0138
vn -0.9638 0.2662 0.0164
vn -0.0000 1.0000 -0.0000
vn -0.0000 -1.0000 -0.0000
vt 0.388889 1.000000
vt 0.375000 1.000000
vt 0.458333 1.000000
vt 0.430556 1.000000
vt 0.555556 1.000000
vt 0.541667 1.000000
vt 0.513889 1.000000
vt 0.500000 1.000000
vt 0.532343 1.000000
vt 0.486111 1.000000
vt 0.523178 1.000000
vt 0.597222 1.000000
vt 0.583333 1.000000
vt 0.569444 1.000000
vt 0.402778 1.000000
vt 0.625000 1.000000
s 0
usemtl Material
f 33/1/1 64/2/1 30/2/1 47/1/1
f 60/3/2 61/4/2 38/4/2 41/3/2
f 39/5/3 56/6/3 49/6/3 42/5/3
f 58/7/4 34/8/4 44/8/4 46/7/4
f 56/6/5 45/9/5 40/9/5 49/6/5
f 59/10/6 60/3/6 41/3/6 43/10/6
f 50/11/5 58/7/5 46/7/5 37/11/5
f 54/12/7 53/13/7 35/13/7 52/12/7
f 34/8/8 59/10/8 43/10/8 44/8/8
f 53/13/9 55/14/9 51/14/9 35/13/9
f 11/13/10 28/13/10 13/14/10 9/14/10
f 29/8/10 19/8/10 20/10/10 6/10/10
f 10/12/10 12/12/10 28/13/10 11/13/10
f 9/14/10 13/14/10 21/5/10 24/5/10
f 14/11/10 26/11/10 17/7/10 7/7/10
f 6/10/10 20/10/10 22/3/10 5/3/10
f 8/6/10 15/6/10 23/9/10 18/9/10
f 7/7/10 17/7/10 19/8/10 29/8/10
f 24/5/10 21/5/10 15/6/10 8/6/10
f 5/3/10 22/3/10 25/4/10 4/4/10
f 32/1/10 16/1/10 57/2/10 1/2/10
f 4/4/10 25/4/10 27/15/10 3/15/10
f 28/13/11 12/12/11 52/12/11 35/13/11
f 3/15/12 32/1/12 33/1/12 62/15/12
f 14/11/13 7/7/13 58/7/13 50/11/13
f 57/2/14 16/1/14 47/1/14 30/2/14
f 55/14/15 39/5/15 42/5/15 51/14/15
f 23/9/14 15/6/14 49/6/14 40/9/14
f 2/16/16 10/12/16 54/12/16 63/16/16
f 22/3/14 20/10/14 43/10/14 41/3/14
f 4/4/17 3/15/17 62/15/17 61/4/17
f 32/1/18 1/2/18 64/2/18 33/1/18
f 13/14/19 28/13/19 35/13/19 51/14/19
f 16/1/14 27/15/14 36/15/14 47/1/14
f 17/7/14 26/11/14 37/11/14 46/7/14
f 5/3/20 4/4/20 61/4/20 60/3/20
f 45/9/5 50/11/5 37/11/5 40/9/5
f 29/8/21 6/10/21 59/10/21 34/8/21
f 10/12/22 11/13/22 53/13/22 54/12/22
f 61/4/23 62/15/23 36/15/23 38/4/23
f 2/16/10 48/16/10 12/12/10 10/12/10
f 18/9/10 23/9/10 26/11/10 14/11/10
f 7/7/24 29/8/24 34/8/24 58/7/24
f 20/10/25 19/8/25 44/8/25 43/10/25
f 18/9/26 14/11/26 50/11/26 45/9/26
f 15/6/14 21/5/14 42/5/14 49/6/14
f 25/4/14 22/3/14 41/3/14 38/4/14
f 21/5/14 13/14/14 51/14/14 42/5/14
f 6/10/27 5/3/27 60/3/27 59/10/27
f 8/6/28 18/9/28 45/9/28 56/6/28
f 26/11/14 23/9/14 40/9/14 37/11/14
f 63/16/29 54/12/29 52/12/29 31/16/29
f 62/15/1 33/1/1 47/1/1 36/15/1
f 12/12/14 48/16/14 31/16/14 52/12/14
f 24/5/30 8/6/30 56/6/30 39/5/30
f 9/14/31 24/5/31 39/5/31 55/14/31
f 19/8/19 17/7/19 46/7/19 44/8/19
f 11/13/32 9/14/32 55/14/32 53/13/32
f 48/16/33 2/16/33 63/16/33 31/16/33
f 27/15/25 25/4/25 38/4/25 36/15/25
f 1/2/34 57/2/34 30/2/34 64/2/34
f 3/15/10 27/15/10 16/1/10 32/1/10
